<svg width="120" height="120" viewBox="0 0 120 120" fill="none" xmlns="http://www.w3.org/2000/svg">
<g style="mix-blend-mode:multiply" opacity="0.6">
<path d="M76.5205 95.8909C76.5205 99.6279 60.9987 102.68 41.8541 102.68C22.7096 102.68 7.18774 99.6466 7.18774 95.8909C7.18774 92.1353 22.7096 89.1052 41.8699 89.1052C61.0302 89.1052 76.5205 92.1446 76.5205 95.8909Z" fill="#CCCCCC"/>
</g>
<path d="M99.8519 73.3292C99.8519 73.3292 93.7951 43.0255 71.0153 29.6348H54.7336C31.9505 43.0255 25.8969 73.3292 25.8969 73.3292C19.2348 108.566 60.6295 104.078 60.6295 104.078H65.1193C65.1193 104.078 106.514 108.566 99.8519 73.3292Z" fill="#E8C47B"/>
<path d="M99.8524 73.3291C99.8524 73.3291 93.7956 43.0255 71.0157 29.6348H61.9669C77.4414 43.094 81.7893 64.8245 81.7893 64.8245C87.8713 97.0183 50.0646 92.9202 50.0646 92.9202H45.9658C45.9658 92.9202 36.1097 93.9852 27.2689 90.7403C34.8769 106.859 60.6332 104.072 60.6332 104.072H65.1229C65.1229 104.072 106.515 108.566 99.8524 73.3291Z" fill="#DAB873"/>
<path d="M38.2092 9.93471C37.3642 8.83854 36.0305 6.47803 37.4809 5.38185C39.3726 3.95558 43.071 5.46905 44.9943 6.00468C47.5166 6.69602 50.2849 7.31573 53.0469 7.03234C55.7426 6.75518 58.8104 5.27597 61.2003 4.31682C63.5902 3.35766 66.1725 1.59818 69.0669 2.47948C72.1 3.41372 73.2918 6.02336 76.7915 6.35035C82.9366 6.92958 86.5656 1.47984 92.3323 2.06219C95.3276 2.3736 94.9839 4.20782 93.3034 5.48773L71.0154 29.6534H54.7337L38.2092 9.93471Z" fill="#E8C47B"/>
<g style="mix-blend-mode:multiply" opacity="0.6">
<path d="M83.5168 113.224C76.0255 113.224 69.9592 110.917 69.9592 108.07C69.9592 105.224 76.0318 102.919 83.5168 102.919C91.0018 102.919 97.0744 105.227 97.0744 108.07C97.0744 110.913 91.0081 113.224 83.5168 113.224Z" fill="#CCCCCC"/>
</g>
<g style="mix-blend-mode:multiply" opacity="0.6">
<path d="M97.7492 97.529C90.261 97.529 84.1917 95.2215 84.1917 92.3751C84.1917 89.5288 90.2642 87.2244 97.7492 87.2244C105.234 87.2244 111.307 89.5319 111.307 92.3751C111.307 95.2183 105.241 97.529 97.7492 97.529Z" fill="#CCCCCC"/>
</g>
<g style="mix-blend-mode:multiply" opacity="0.6">
<path d="M96.0906 107.678C88.6055 107.429 82.4573 109.531 82.3596 112.374C82.2618 115.217 88.2524 117.727 95.7406 117.979C103.229 118.232 109.374 116.126 109.468 113.283C109.563 110.44 103.569 107.93 96.0906 107.678Z" fill="#CCCCCC"/>
</g>
<g style="mix-blend-mode:multiply" opacity="0.6">
<path d="M57.7412 99.1609C65.2263 98.9087 71.3745 101.011 71.4722 103.857C71.57 106.703 65.5794 109.207 58.0943 109.462C50.6093 109.718 44.4611 107.61 44.3634 104.766C44.2656 101.923 50.2562 99.41 57.7412 99.1609Z" fill="#CCCCCC"/>
</g>
<path d="M51.7795 100.677C51.7795 103.52 57.8521 105.828 65.3371 105.828C72.8222 105.828 78.8947 103.52 78.8947 100.677V98.2419H51.7795V100.677Z" fill="#FF931E"/>
<path d="M64.0509 99.4941V105.803C64.4765 105.819 64.9085 105.828 65.3436 105.828V99.4941H64.0509Z" fill="#D17918"/>
<path d="M61.4374 99.4941V105.61C62.1373 105.691 62.8625 105.75 63.6066 105.785V99.4941H61.4374Z" fill="#D17918"/>
<path d="M60.9009 105.545V98.2546H51.7795V100.677C51.7795 102.932 55.5914 104.844 60.9009 105.545Z" fill="#D17918"/>
<path d="M70.1736 99.4941V105.492L70.615 105.423V99.5066L70.1736 99.4941Z" fill="#D17918"/>
<path d="M68.4871 105.688L68.9285 105.645V99.4941H68.4871V105.688Z" fill="#D17918"/>
<path d="M66.3651 99.4941V105.813L66.9957 105.791V99.4941H66.3651Z" fill="#D17918"/>
<path d="M65.3437 103.384C57.8524 103.384 51.7861 101.076 51.7861 98.2297C51.7861 95.3834 57.8524 93.1069 65.3437 93.1069C72.8351 93.1069 78.9013 95.4145 78.9013 98.2577C78.9013 101.101 72.8319 103.384 65.3437 103.384Z" fill="#FF931E"/>
<path style="mix-blend-mode:multiply" opacity="0.4" d="M72.9864 102.499C72.6018 102.499 72.2139 102.521 71.8198 102.521C64.3316 102.521 58.2622 100.214 58.2622 97.3672C58.2622 95.5984 60.608 94.0413 64.1834 93.1133C57.247 93.3375 51.7861 95.5485 51.7861 98.2423C51.7861 101.089 57.8587 103.396 65.3437 103.396C67.9193 103.416 70.4872 103.114 72.9864 102.499V102.499Z" fill="url(#paint0_linear_3347_11371)"/>
<path d="M78.8947 98.4008C78.6708 95.6292 72.6929 93.4182 65.3371 93.4182C57.9813 93.4182 52.0066 95.6386 51.7795 98.4008C52.0002 101.169 57.9813 103.383 65.3371 103.383C72.6929 103.383 78.6614 101.172 78.8947 98.4008ZM65.3371 102.761C59.2488 102.761 54.3019 100.892 54.3019 98.5659C54.3019 96.2396 59.2551 94.3711 65.3371 94.3711C71.4191 94.3711 76.3723 96.2396 76.3723 98.5659C76.3723 100.892 71.4286 102.761 65.3434 102.761H65.3371Z" fill="#D17918"/>
<path d="M64.1138 97.5291L58.8673 99.0238V100.058L64.2273 98.4228C64.9021 98.9112 65.6824 99.2384 66.5069 99.3789L66.7496 99.4256V100.36H68.6981V99.6467C69.1206 99.6653 69.5179 99.6653 69.8616 99.6467V100.344H71.8069V97.5726H69.8616V98.9117C69.5463 98.9117 69.1301 98.9117 68.6981 98.8962V97.5726H66.7496V98.5069C66.3051 98.3558 65.9143 98.0811 65.624 97.7159L64.1138 97.5291Z" fill="#D17918"/>
<path d="M76.3815 98.2421C76.3815 100.556 71.4283 102.437 65.3463 102.437C59.2643 102.437 54.311 100.568 54.311 98.2421C54.311 95.9158 59.2643 94.0505 65.3463 94.0505C71.4283 94.0505 76.3815 95.9189 76.3815 98.2421ZM78.9038 98.2421C78.9038 95.3989 72.8313 93.0913 65.3463 93.0913C57.8612 93.0913 51.7887 95.3989 51.7887 98.2421C51.7887 101.085 57.8518 103.383 65.3431 103.383C72.8345 103.383 78.9007 101.076 78.9007 98.2296L78.9038 98.2421Z" fill="#FFC022"/>
<path d="M55.7616 98.2423C55.7616 96.2368 60.059 94.605 65.3433 94.605C70.6276 94.605 74.9219 96.2368 74.9219 98.2423C74.9219 100.248 70.6245 101.883 65.3433 101.883C60.0622 101.883 55.7616 100.251 55.7616 98.2423ZM74.5026 98.2423C74.5026 96.324 70.4038 94.7638 65.3433 94.7638C60.2829 94.7638 56.1999 96.3209 56.1999 98.2423C56.1999 100.164 60.2987 101.724 65.3433 101.724C70.388 101.724 74.5026 100.161 74.5026 98.2423Z" fill="#FFC022"/>
<path d="M64.1138 96.844L58.8673 98.3357V99.3696L64.2273 97.7346C64.9028 98.2218 65.6828 98.5489 66.5069 98.6907L66.7496 98.7374V99.6716H68.6981V98.9647C69.1206 98.9803 69.5179 98.9834 69.8616 98.9647V99.6467H71.8069V96.8782H69.8616V98.2142C69.4737 98.2286 69.0854 98.2234 68.6981 98.1986V96.8782H66.7496V97.8125C66.3057 97.6603 65.9151 97.3858 65.624 97.0215L64.1138 96.844Z" fill="#FFC022"/>
<path d="M51.7795 95.5266C51.7795 98.3698 57.8521 100.677 65.3371 100.677C72.8222 100.677 78.8947 98.3698 78.8947 95.5266V93.1069H51.7795V95.5266Z" fill="#FF931E"/>
<path d="M64.0509 94.3525V100.662C64.4765 100.662 64.9085 100.687 65.3436 100.687V94.3525H64.0509Z" fill="#D17918"/>
<path d="M61.4374 94.3525V100.469C62.1373 100.55 62.8625 100.606 63.6066 100.643V94.3525H61.4374Z" fill="#D17918"/>
<path d="M60.9009 100.394V93.1069H51.7795V95.5329C51.7795 97.7781 55.5914 99.6933 60.9009 100.394Z" fill="#D17918"/>
<path d="M70.1736 94.3525V100.347C70.3218 100.325 70.47 100.307 70.615 100.282V94.3525H70.1736Z" fill="#D17918"/>
<path d="M68.4871 100.537L68.9285 100.494V94.3525H68.4871V100.537Z" fill="#D17918"/>
<path d="M66.3651 94.3525V100.671L66.9957 100.646V94.3525H66.3651Z" fill="#D17918"/>
<path d="M65.3437 98.242C57.8524 98.242 51.7861 95.9375 51.7861 93.0912C51.7861 90.2449 57.8587 87.9404 65.3437 87.9404C72.8288 87.9404 78.9013 90.2449 78.9013 93.0912C78.9013 95.9375 72.8319 98.242 65.3437 98.242Z" fill="#FF931E"/>
<path style="mix-blend-mode:multiply" opacity="0.4" d="M72.9864 97.3486C72.6018 97.3486 72.2139 97.3673 71.8198 97.3673C64.3316 97.3673 58.2622 95.0628 58.2622 92.2165C58.2622 90.4477 60.608 88.8875 64.1834 87.9595C57.247 88.1837 51.7861 90.3947 51.7861 93.0916C51.7861 95.9379 57.8587 98.2423 65.3437 98.2423C67.9192 98.2628 70.487 97.9626 72.9864 97.3486V97.3486Z" fill="url(#paint1_linear_3347_11371)"/>
<path d="M78.8947 93.2502C78.6708 90.4817 72.6929 88.2676 65.3371 88.2676C57.9813 88.2676 52.0066 90.4911 51.7795 93.2502C52.0002 96.0218 57.9813 98.2328 65.3371 98.2328C72.6929 98.2328 78.6614 96.0218 78.8947 93.2502ZM65.3371 97.61C59.2488 97.61 54.3019 95.7415 54.3019 93.4184C54.3019 91.0952 59.2551 89.2236 65.3371 89.2236C71.4191 89.2236 76.3723 91.0921 76.3723 93.4184C76.3723 95.7446 71.4286 97.6038 65.3434 97.6038L65.3371 97.61Z" fill="#D17918"/>
<path d="M64.1138 92.3752L58.8673 93.8669V94.9008L64.2273 93.2659C64.9028 93.7531 65.6828 94.0802 66.5069 94.2219L66.7496 94.2686V95.2029H68.6981V94.4929C69.1206 94.5115 69.5179 94.5115 69.8616 94.4929V95.1904H71.8069V92.4188H69.8616V93.7548C69.474 93.7744 69.0857 93.7744 68.6981 93.7548V92.422H66.7496V93.3562C66.3051 93.2051 65.9143 92.9304 65.624 92.5652L64.1138 92.3752Z" fill="#D17918"/>
<path d="M76.3815 93.1071C76.3815 95.4209 71.4283 97.3018 65.3463 97.3018C59.2643 97.3018 54.311 95.4333 54.311 93.1071C54.311 90.7808 59.2643 88.9123 65.3463 88.9123C71.4283 88.9123 76.3815 90.7808 76.3815 93.1071ZM78.9038 93.1071C78.9038 90.2608 72.8313 87.9563 65.3463 87.9563C57.8612 87.9563 51.7887 90.2608 51.7887 93.1071C51.7887 95.9534 57.8612 98.2579 65.3463 98.2579C72.8313 98.2579 78.9038 95.9534 78.9038 93.1071Z" fill="#FFC022"/>
<path d="M55.7616 93.107C55.7616 91.0984 60.059 89.4666 65.3433 89.4666C70.6276 89.4666 74.9219 91.0984 74.9219 93.107C74.9219 95.1156 70.6245 96.7474 65.3433 96.7474C60.0622 96.7474 55.7616 95.0969 55.7616 93.107ZM74.5026 93.107C74.5026 91.1887 70.4038 89.6285 65.3433 89.6285C60.2829 89.6285 56.1999 91.1856 56.1999 93.107C56.1999 95.0284 60.2987 96.5855 65.3433 96.5855C70.388 96.5855 74.5026 95.0097 74.5026 93.107Z" fill="#FFC022"/>
<path d="M64.1138 91.6836L58.8673 93.1722V94.2092L64.2273 92.5711C64.9021 93.0595 65.6824 93.3867 66.5069 93.5272L66.7496 93.577V94.5112H68.6981V93.8012C69.1206 93.8199 69.5179 93.823 69.8616 93.8012V94.4988H71.8069V91.7272H69.8616V93.0663C69.5463 93.0663 69.1301 93.0663 68.6981 93.0507V91.7272H66.7496V92.6614C66.3045 92.5115 65.9134 92.2366 65.624 91.8704L64.1138 91.6836Z" fill="#FFC022"/>
<path d="M51.7795 90.3726C51.7795 93.2189 57.8521 95.5233 65.3371 95.5233C72.8222 95.5233 78.8947 93.2189 78.8947 90.3726V87.9404H51.7795V90.3726Z" fill="#FF931E"/>
<path d="M64.0509 89.1895V95.5018C64.4765 95.5174 64.9085 95.5236 65.3436 95.5236V89.1895H64.0509Z" fill="#D17918"/>
<path d="M61.4374 89.1895V95.3056C62.1373 95.3866 62.8625 95.4457 63.6066 95.48V89.1895H61.4374Z" fill="#D17918"/>
<path d="M60.9009 95.2404V87.9502H51.7795V90.373C51.7795 92.6276 55.5914 94.5428 60.9009 95.2404Z" fill="#D17918"/>
<path d="M70.1736 89.1895V95.1873L70.615 95.1219V89.1895H70.1736Z" fill="#D17918"/>
<path d="M68.4871 95.3835L68.9285 95.343V89.1895H68.4871V95.3835Z" fill="#D17918"/>
<path d="M66.3651 89.1895V95.508C66.5795 95.508 66.7939 95.5081 66.9957 95.4863V89.1895H66.3651Z" fill="#D17918"/>
<path d="M65.3437 93.1069C57.8524 93.1069 51.7861 90.7993 51.7861 87.9561C51.7861 85.1129 57.8587 82.8022 65.3437 82.8022C72.8288 82.8022 78.9013 85.1098 78.9013 87.9561C78.9013 90.8024 72.8319 93.1069 65.3437 93.1069Z" fill="#FF931E"/>
<path style="mix-blend-mode:multiply" opacity="0.4" d="M72.9864 92.1941C72.6018 92.1941 72.2139 92.2159 71.8198 92.2159C64.3316 92.2159 58.2622 89.9083 58.2622 87.0651C58.2622 85.2963 60.608 83.7361 64.1834 82.8081C57.247 83.0323 51.7861 85.2434 51.7861 87.9402C51.7861 90.7834 57.8587 93.091 65.3437 93.091C67.9194 93.1121 70.4874 92.8107 72.9864 92.1941V92.1941Z" fill="url(#paint2_linear_3347_11371)"/>
<path d="M78.8947 88.0993C78.6708 85.3277 72.6929 83.1167 65.3371 83.1167C57.9813 83.1167 52.0066 85.3371 51.7795 88.0993C52.0002 90.8709 57.9813 93.0819 65.3371 93.0819C72.6929 93.0819 78.6614 90.8709 78.8947 88.0993ZM65.3371 92.4591C59.2488 92.4591 54.3019 90.5906 54.3019 88.2644C54.3019 85.9381 59.2551 84.0727 65.3371 84.0727C71.4191 84.0727 76.3723 85.9412 76.3723 88.2644C76.3723 90.5875 71.4286 92.4529 65.3434 92.4529L65.3371 92.4591Z" fill="#D17918"/>
<path d="M64.1138 87.2244L58.8673 88.7129V89.7499L64.2273 88.115C64.9028 88.6022 65.6828 88.9293 66.5069 89.0711L66.7496 89.1178V90.052H68.6981V89.342C69.1206 89.3607 69.5179 89.3638 69.8616 89.3575V90.052H71.8069V87.2804H69.8616V88.6195C69.4737 88.6339 69.0854 88.6287 68.6981 88.6039V87.2804H66.7496V88.2147C66.3057 88.0625 65.9151 87.788 65.624 87.4237L64.1138 87.2244Z" fill="#D17918"/>
<path d="M76.3815 87.9405C76.3815 90.2512 71.4283 92.1321 65.3463 92.1321C59.2643 92.1321 54.311 90.2637 54.311 87.9405C54.311 85.6174 59.2643 83.7458 65.3463 83.7458C71.4283 83.7458 76.3815 85.6143 76.3815 87.9405ZM78.9038 87.9405C78.9038 85.0942 72.8313 82.7866 65.3463 82.7866C57.8612 82.7866 51.7887 85.0942 51.7887 87.9405C51.7887 90.7868 57.8518 93.1069 65.3431 93.1069C72.8345 93.1069 78.9007 90.7993 78.9007 87.9561L78.9038 87.9405Z" fill="#FFC022"/>
<path d="M55.7616 87.9407C55.7616 85.9321 60.059 84.3003 65.3433 84.3003C70.6276 84.3003 74.9219 85.9321 74.9219 87.9407C74.9219 89.9493 70.6245 91.578 65.3433 91.578C60.0622 91.578 55.7616 89.9462 55.7616 87.9407ZM74.5026 87.9407C74.5026 86.0224 70.4038 84.4591 65.3433 84.4591C60.2829 84.4591 56.1999 86.0162 56.1999 87.9407C56.1999 89.8653 60.2987 91.4192 65.3433 91.4192C70.388 91.4192 74.5026 89.859 74.5026 87.9407Z" fill="#FFC022"/>
<path d="M64.1138 86.533L58.8673 88.0215V89.0585L64.2273 87.4236C64.9028 87.9108 65.6828 88.2379 66.5069 88.3796L66.7496 88.4263V89.3606H68.6981V88.6506C69.1206 88.6692 69.5179 88.6692 69.8616 88.6506V89.3481H71.8069V86.5672H69.8616V87.9063C69.5463 87.9063 69.1301 87.9063 68.6981 87.8876V86.5672H66.7496V87.5014C66.3051 87.3504 65.9143 87.0757 65.624 86.7105L64.1138 86.533Z" fill="#FFC022"/>
<path d="M85.1753 90.7837C85.1753 93.63 91.2478 95.9345 98.7329 95.9345C106.218 95.9345 112.29 93.63 112.29 90.7837V88.3516H85.1753V90.7837Z" fill="#FF931E"/>
<path d="M97.4467 89.6003V95.9096C97.8723 95.9252 98.3011 95.9314 98.7362 95.9314V89.6003H97.4467Z" fill="#D17918"/>
<path d="M94.8295 89.6003V95.7165C95.5336 95.7975 96.2567 95.8556 96.9987 95.8909V89.6003H94.8295Z" fill="#D17918"/>
<path d="M94.2935 95.6513V88.3611H85.1753V90.7839C85.1753 93.0385 88.9872 94.9537 94.2935 95.6513Z" fill="#D17918"/>
<path d="M103.569 89.6003V95.5982L104.011 95.5328V89.6003H103.569Z" fill="#D17918"/>
<path d="M101.88 95.7944L102.321 95.7539V89.6003H101.88V95.7944Z" fill="#D17918"/>
<path d="M99.7421 89.6003V95.9096L100.388 95.8878V89.6003H99.7421Z" fill="#D17918"/>
<path d="M98.7359 93.5022C91.2477 93.5022 85.1783 91.1946 85.1783 88.3514C85.1783 85.5082 91.2509 83.1975 98.7359 83.1975C106.221 83.1975 112.293 85.5051 112.293 88.3514C112.293 91.1977 106.227 93.5022 98.7359 93.5022Z" fill="#FF931E"/>
<path style="mix-blend-mode:multiply" opacity="0.4" d="M106.379 92.6057C105.994 92.6057 105.607 92.6275 105.212 92.6275C97.7211 92.6275 91.6548 90.3199 91.6548 87.4767C91.6548 85.7079 94.0038 84.1477 97.576 83.2197C90.6396 83.4439 85.1819 85.655 85.1819 88.3518C85.1819 91.195 91.2544 93.5026 98.7395 93.5026C101.314 93.5232 103.881 93.2218 106.379 92.6057Z" fill="url(#paint3_linear_3347_11371)"/>
<path d="M112.287 88.5104C112.067 85.7389 106.086 83.5278 98.7298 83.5278C91.374 83.5278 85.4024 85.7482 85.1722 88.5104C85.3961 91.282 91.374 93.4931 98.7298 93.4931C106.086 93.4931 112.082 91.282 112.287 88.5104ZM98.7298 92.8702C92.6415 92.8702 87.6946 91.0017 87.6946 88.6755C87.6946 86.3492 92.6447 84.4839 98.7298 84.4839C104.815 84.4839 109.765 86.3523 109.765 88.6755C109.765 90.9986 104.831 92.864 98.7361 92.864L98.7298 92.8702Z" fill="#D17918"/>
<path d="M97.5063 87.6353L92.2599 89.1238V90.1608L97.6199 88.5259C98.2969 89.0125 99.0778 89.3395 99.9026 89.4819L100.145 89.5287V90.4629H102.091V89.7529C102.516 89.7716 102.914 89.7747 103.254 89.7529V90.4504H105.203V87.6789H103.254V89.0179C102.939 89.0179 102.526 89.0179 102.091 89.0024V87.6789H100.145V88.6131C99.7011 88.4632 99.3102 88.1896 99.0198 87.8252L97.5063 87.6353Z" fill="#D17918"/>
<path d="M109.778 88.3514C109.778 90.6621 104.824 92.543 98.7425 92.543C92.6605 92.543 87.7073 90.6745 87.7073 88.3514C87.7073 86.0283 92.6574 84.1567 98.7425 84.1567C104.828 84.1567 109.778 86.0251 109.778 88.3514ZM112.3 88.3514C112.3 85.5051 106.228 83.1975 98.7425 83.1975C91.2575 83.1975 85.1849 85.5051 85.1849 88.3514C85.1849 91.1977 91.2575 93.5022 98.7425 93.5022C106.228 93.5022 112.3 91.1946 112.3 88.3514Z" fill="#FFC022"/>
<path d="M89.1573 88.3516C89.1573 86.343 93.4548 84.7112 98.7359 84.7112C104.017 84.7112 108.318 86.343 108.318 88.3516C108.318 90.3602 104.02 91.9889 98.7359 91.9889C93.4516 91.9889 89.1573 90.3571 89.1573 88.3516ZM107.895 88.3516C107.895 86.4333 103.796 84.87 98.7359 84.87C93.6755 84.87 89.5767 86.4271 89.5767 88.3516C89.5767 90.2761 93.6755 91.8301 98.7359 91.8301C103.796 91.8301 107.895 90.2699 107.895 88.3516Z" fill="#FFC022"/>
<path d="M97.5063 86.9443L92.2599 88.436V89.4699L97.6199 87.835C98.2969 88.3215 99.0778 88.6486 99.9026 88.791C99.9814 88.8097 100.063 88.8222 100.145 88.8377V89.772H102.091V89.0588C102.516 89.0775 102.914 89.0775 103.254 89.0588V89.7564H105.203V86.9848H103.254V88.3208C102.866 88.3352 102.478 88.33 102.091 88.3052V86.9848H100.145V87.9191C99.7014 87.7669 99.3109 87.4924 99.0198 87.1281L97.5063 86.9443Z" fill="#FFC022"/>
<path d="M85.1753 85.6328C85.1753 88.476 91.2478 90.7835 98.7329 90.7835C106.218 90.7835 112.29 88.476 112.29 85.6328V83.1975H85.1753V85.6328Z" fill="#FF931E"/>
<path d="M97.4467 84.4495V90.7587C97.8723 90.7743 98.3011 90.7836 98.7362 90.7836V84.4495H97.4467Z" fill="#D17918"/>
<path d="M94.8295 84.4495V90.5656C95.5336 90.6466 96.2567 90.7047 96.9987 90.74V84.4495H94.8295Z" fill="#D17918"/>
<path d="M94.2935 90.5006V83.2073H85.1753V85.6332C85.1753 87.8847 88.9872 89.7999 94.2935 90.5006Z" fill="#D17918"/>
<path d="M103.569 84.4495V90.4473L104.011 90.3788V84.4619L103.569 84.4495Z" fill="#D17918"/>
<path d="M101.879 90.6435L102.308 90.6154V84.4495H101.867L101.879 90.6435Z" fill="#D17918"/>
<path d="M99.7421 84.4495V90.768C99.9596 90.768 100.174 90.768 100.388 90.7431V84.4495H99.7421Z" fill="#D17918"/>
<path d="M98.7359 88.3515C91.2477 88.3515 85.1783 86.044 85.1783 83.1976C85.1783 80.3513 91.2509 78.0469 98.7359 78.0469C106.221 78.0469 112.293 80.3544 112.293 83.1976C112.293 86.0408 106.227 88.3515 98.7359 88.3515Z" fill="#FF931E"/>
<path style="mix-blend-mode:multiply" opacity="0.4" d="M106.379 87.4549C105.994 87.4549 105.607 87.4735 105.212 87.4735C97.7211 87.4735 91.6548 85.1691 91.6548 82.3228C91.6548 80.5539 94.0038 78.9937 97.576 78.0688C90.6396 78.2931 85.1819 80.5041 85.1819 83.1978C85.1819 86.0441 91.2544 88.3517 98.7395 88.3517C101.314 88.3708 103.881 88.0694 106.379 87.4549V87.4549Z" fill="url(#paint4_linear_3347_11371)"/>
<path d="M112.287 83.3598C112.067 80.5882 106.086 78.3772 98.7298 78.3772C91.374 78.3772 85.4024 80.5976 85.1722 83.3598C85.3961 86.1283 91.374 88.3424 98.7298 88.3424C106.086 88.3424 112.082 86.1283 112.287 83.3598ZM98.7298 87.7196C92.6415 87.7196 87.6946 85.8356 87.6946 83.5249C87.6946 81.2142 92.6447 79.3301 98.7298 79.3301C104.815 79.3301 109.765 81.1986 109.765 83.5249C109.765 85.8511 104.831 87.7134 98.7361 87.7134L98.7298 87.7196Z" fill="#D17918"/>
<path d="M97.5063 82.4846L92.2599 83.9732V85.0102L97.6199 83.3753C98.2969 83.8618 99.0778 84.1889 99.9026 84.3313C99.9814 84.35 100.063 84.3656 100.145 84.378V85.3123H102.091V84.6022C102.516 84.6209 102.914 84.6209 103.254 84.6022V85.2998H105.203V82.5189H103.254V83.8579C102.939 83.8579 102.526 83.858 102.091 83.8424V82.5189H100.145V83.4531C99.7008 83.302 99.31 83.0274 99.0198 82.6621L97.5063 82.4846Z" fill="#D17918"/>
<path d="M109.778 83.1976C109.778 85.5114 104.824 87.3924 98.7425 87.3924C92.6605 87.3924 87.7073 85.5239 87.7073 83.1976C87.7073 80.8714 92.6574 79.006 98.7425 79.006C104.828 79.006 109.778 80.8745 109.778 83.1976ZM112.3 83.1976C112.3 80.3544 106.228 78.0469 98.7425 78.0469C91.2575 78.0469 85.1849 80.3544 85.1849 83.1976C85.1849 86.0408 91.2575 88.3515 98.7425 88.3515C106.228 88.3515 112.3 86.044 112.3 83.1976Z" fill="#FFC022"/>
<path d="M89.1573 83.1978C89.1573 81.1923 93.4548 79.5605 98.7359 79.5605C104.017 79.5605 108.318 81.1923 108.318 83.1978C108.318 85.2033 104.02 86.8383 98.7359 86.8383C93.4516 86.8383 89.1573 85.2065 89.1573 83.1978ZM107.895 83.1978C107.895 81.2795 103.796 79.7194 98.7359 79.7194C93.6755 79.7194 89.5767 81.2764 89.5767 83.1978C89.5767 85.1193 93.6755 86.6794 98.7359 86.6794C103.796 86.6794 107.895 85.1161 107.895 83.1978Z" fill="#FFC022"/>
<path d="M97.5063 81.7903L92.2599 83.282V84.3158L97.6199 82.6778C98.2959 83.1668 99.0771 83.495 99.9026 83.637L100.145 83.6837V84.6179H102.091V83.9079C102.516 83.9266 102.914 83.9297 103.254 83.9235V84.6179H105.203V81.8463H103.254V83.1854C102.866 83.1998 102.478 83.1946 102.091 83.1698V81.8339H100.145V82.7681C99.7011 82.6182 99.3102 82.3446 99.0198 81.9802L97.5063 81.7903Z" fill="#FFC022"/>
<path d="M85.1753 80.4821C85.1753 83.3253 91.2478 85.6329 98.7329 85.6329C106.218 85.6329 112.29 83.3253 112.29 80.4821V78.0469H85.1753V80.4821Z" fill="#FF931E"/>
<path d="M97.4467 79.2988V85.6081C97.8723 85.6236 98.3011 85.633 98.7362 85.633V79.2988H97.4467Z" fill="#D17918"/>
<path d="M94.8295 79.2988V85.415C95.5336 85.4939 96.2567 85.552 96.9987 85.5894V79.2988H94.8295Z" fill="#D17918"/>
<path d="M94.2935 85.3463V78.0562H85.1753V80.4821C85.1753 82.7336 88.9872 84.6488 94.2935 85.3463Z" fill="#D17918"/>
<path d="M103.569 79.2988V85.2935L104.011 85.2281V79.3113L103.569 79.2988Z" fill="#D17918"/>
<path d="M101.88 85.4928L102.321 85.4492V79.2988H101.88V85.4928Z" fill="#D17918"/>
<path d="M99.7421 79.2988V85.633L100.388 85.6081V79.2988H99.7421Z" fill="#D17918"/>
<path d="M98.7359 83.1976C91.2477 83.1976 85.1783 80.8931 85.1783 78.0468C85.1783 75.2005 91.2509 72.896 98.7359 72.896C106.221 72.896 112.293 75.2005 112.293 78.0468C112.293 80.8931 106.227 83.1976 98.7359 83.1976Z" fill="#FF931E"/>
<path style="mix-blend-mode:multiply" opacity="0.4" d="M106.379 82.3041C105.994 82.3041 105.607 82.3228 105.212 82.3228C97.7211 82.3228 91.6548 80.0152 91.6548 77.172C91.6548 75.4032 94.0038 73.843 97.576 72.915C90.6396 73.1393 85.1819 75.3503 85.1819 78.0471C85.1819 80.8934 91.2544 83.1979 98.7395 83.1979C101.314 83.2179 103.881 82.9176 106.379 82.3041V82.3041Z" fill="url(#paint5_linear_3347_11371)"/>
<path d="M112.287 78.2058C112.067 75.4342 106.086 73.2231 98.7298 73.2231C91.374 73.2231 85.4024 75.4435 85.1722 78.2058C85.3961 80.9773 91.374 83.1884 98.7298 83.1884C106.086 83.1884 112.082 80.9773 112.287 78.2058ZM98.7298 82.5655C92.6415 82.5655 87.6946 80.6971 87.6946 78.3739C87.6946 76.0508 92.6447 74.1792 98.7298 74.1792C104.815 74.1792 109.765 76.0477 109.765 78.3739C109.765 80.7002 104.831 82.5593 98.7361 82.5593L98.7298 82.5655Z" fill="#D17918"/>
<path d="M97.5063 77.3308L92.2599 78.8194V79.8564L97.6199 78.2215C98.2969 78.708 99.0778 79.035 99.9026 79.1775C99.9814 79.1962 100.063 79.2086 100.145 79.2242V80.1584H102.091V79.4515C102.516 79.4702 102.914 79.4702 103.254 79.4515V80.146H105.203V77.3775H103.254V78.7135C102.867 78.7331 102.478 78.7331 102.091 78.7135V77.3931H100.145V78.3273C99.7049 78.1736 99.3178 77.8992 99.0292 77.5363L97.5063 77.3308Z" fill="#D17918"/>
<path d="M109.778 78.0468C109.778 80.3575 104.824 82.2415 98.7425 82.2415C92.6605 82.2415 87.7073 80.3575 87.7073 78.0468C87.7073 75.7361 92.6574 73.852 98.7425 73.852C104.828 73.852 109.778 75.7205 109.778 78.0468ZM112.3 78.0468C112.3 75.2005 106.228 72.896 98.7425 72.896C91.2575 72.896 85.1849 75.2005 85.1849 78.0468C85.1849 80.8931 91.2575 83.1976 98.7425 83.1976C106.228 83.1976 112.3 80.8931 112.3 78.0468Z" fill="#FFC022"/>
<path d="M89.1573 78.0469C89.1573 76.0383 93.4548 74.4065 98.7359 74.4065C104.017 74.4065 108.318 76.0383 108.318 78.0469C108.318 80.0555 104.02 81.6873 98.7359 81.6873C93.4516 81.6873 89.1573 80.0524 89.1573 78.0469ZM107.895 78.0469C107.895 76.1286 103.796 74.5684 98.7359 74.5684C93.6755 74.5684 89.5767 76.1255 89.5767 78.0469C89.5767 79.9683 93.6755 81.5254 98.7359 81.5254C103.796 81.5254 107.895 79.9652 107.895 78.0469Z" fill="#FFC022"/>
<path d="M97.5064 76.6394L92.2599 78.128V79.1618L97.6199 77.5269C98.3009 78.0104 99.085 78.3332 99.912 78.4705L100.155 78.5203V79.4546H102.1V78.7445C102.526 78.7632 102.923 78.7663 103.264 78.7445V79.4421H105.212V76.6705H103.254V78.0096C102.939 78.0096 102.526 78.0096 102.091 77.994V76.6705H100.145V77.6048C99.7003 77.4548 99.3091 77.1799 99.0198 76.8138L97.5064 76.6394Z" fill="#FFC022"/>
<path d="M85.1753 75.3281C85.1753 78.1745 91.2478 80.4789 98.7329 80.4789C106.218 80.4789 112.29 78.1745 112.29 75.3281V72.896H85.1753V75.3281Z" fill="#FF931E"/>
<path d="M97.4467 74.145V80.4574C97.8723 80.4729 98.3011 80.4792 98.7362 80.4792V74.145H97.4467Z" fill="#D17918"/>
<path d="M94.8295 74.145V80.2612C95.5336 80.3421 96.2567 80.4003 96.9987 80.4356V74.145H94.8295Z" fill="#D17918"/>
<path d="M94.2935 80.1957V72.9055H85.1753V75.3283C85.1753 77.5829 88.9872 79.4981 94.2935 80.1957Z" fill="#D17918"/>
<path d="M103.569 74.145V80.1428L104.011 80.0774V74.145H103.569Z" fill="#D17918"/>
<path d="M101.88 80.339L102.321 80.2986V74.145H101.88V80.339Z" fill="#D17918"/>
<path d="M99.7421 74.145V80.4636L100.388 80.4418V74.145H99.7421Z" fill="#D17918"/>
<path d="M98.7359 78.0471C91.2477 78.0471 85.1783 75.7395 85.1783 72.8963C85.1783 70.0531 91.2509 67.7424 98.7359 67.7424C106.221 67.7424 112.293 70.05 112.293 72.8963C112.293 75.7426 106.227 78.0471 98.7359 78.0471Z" fill="#FF931E"/>
<path style="mix-blend-mode:multiply" opacity="0.4" d="M106.379 77.1502C105.994 77.1502 105.607 77.172 105.212 77.172C97.7211 77.172 91.6548 74.8644 91.6548 72.0212C91.6548 70.2524 94.0038 68.6922 97.576 67.7642C90.6396 67.9884 85.1819 70.1994 85.1819 72.8963C85.1819 75.7395 91.2544 78.047 98.7395 78.047C101.314 78.0676 103.881 77.7663 106.379 77.1502V77.1502Z" fill="url(#paint6_linear_3347_11371)"/>
<path d="M112.287 73.0549C112.067 70.2833 106.086 68.0723 98.7298 68.0723C91.374 68.0723 85.4024 70.2926 85.1722 73.0549C85.3961 75.8265 91.374 78.0375 98.7298 78.0375C106.086 78.0375 112.082 75.8265 112.287 73.0549ZM98.7298 77.4147C92.6415 77.4147 87.6946 75.5462 87.6946 73.2199C87.6946 70.8937 92.6447 69.0283 98.7298 69.0283C104.815 69.0283 109.765 70.8968 109.765 73.2199C109.765 75.5431 104.831 77.4084 98.7361 77.4084L98.7298 77.4147Z" fill="#D17918"/>
<path d="M97.5063 72.1799L92.2599 73.6685V74.7055L97.6199 73.0706C98.2969 73.5571 99.0778 73.8842 99.9026 74.0266L100.145 74.0733V75.0076H102.091V74.2976C102.516 74.3162 102.914 74.3193 103.254 74.2976V74.9951H105.203V72.2235H103.254V73.5626C102.939 73.5626 102.526 73.5626 102.091 73.547V72.2235H100.145V73.1578C99.7011 73.0079 99.3102 72.7342 99.0198 72.3699L97.5063 72.1799Z" fill="#D17918"/>
<path d="M109.778 72.8963C109.778 75.207 104.824 77.0879 98.7425 77.0879C92.6605 77.0879 87.7073 75.2195 87.7073 72.8963C87.7073 70.5732 92.6574 68.7016 98.7425 68.7016C104.828 68.7016 109.778 70.5701 109.778 72.8963ZM112.3 72.8963C112.3 70.05 106.228 67.7424 98.7425 67.7424C91.2575 67.7424 85.1849 70.05 85.1849 72.8963C85.1849 75.7426 91.2575 78.0471 98.7425 78.0471C106.228 78.0471 112.3 75.7395 112.3 72.8963Z" fill="#FFC022"/>
<path d="M89.1573 72.896C89.1573 70.8874 93.4548 69.2556 98.7359 69.2556C104.017 69.2556 108.318 70.8874 108.318 72.896C108.318 74.9046 104.02 76.5333 98.7359 76.5333C93.4516 76.5333 89.1573 74.9015 89.1573 72.896ZM107.895 72.896C107.895 70.9777 103.796 69.4144 98.7359 69.4144C93.6755 69.4144 89.5767 70.9715 89.5767 72.896C89.5767 74.8206 93.6755 76.3745 98.7359 76.3745C103.796 76.3745 107.895 74.8143 107.895 72.896Z" fill="#FFC022"/>
<path d="M97.5063 71.4888L92.2599 72.9773V74.0112L97.6199 72.3763C98.2969 72.8629 99.0778 73.1899 99.9026 73.3323C99.9814 73.351 100.063 73.3635 100.145 73.3791V74.3133H102.091V73.6033C102.516 73.622 102.914 73.622 103.254 73.6033V74.3008H105.203V71.5293H103.254V72.8652C102.866 72.8796 102.478 72.8744 102.091 72.8497V71.5293H100.145V72.4635C99.7014 72.3113 99.3109 72.0369 99.0198 71.6725L97.5063 71.4888Z" fill="#FFC022"/>
<path d="M85.1753 70.1777C85.1753 73.0209 91.2478 75.3285 98.7329 75.3285C106.218 75.3285 112.29 73.0209 112.29 70.1777V67.7424H85.1753V70.1777Z" fill="#FF931E"/>
<path d="M97.4467 68.9939V75.3031C97.8723 75.3187 98.3011 75.328 98.7362 75.328V68.9939H97.4467Z" fill="#D17918"/>
<path d="M94.8295 68.9939V75.1101C95.5336 75.191 96.2567 75.2491 96.9987 75.2844V68.9939H94.8295Z" fill="#D17918"/>
<path d="M94.2935 75.045V67.7517H85.1753V70.1776C85.1753 72.4322 88.9872 74.3443 94.2935 75.045Z" fill="#D17918"/>
<path d="M103.569 68.9939V74.9917L104.011 74.9232V69.0063L103.569 68.9939Z" fill="#D17918"/>
<path d="M101.88 75.1879L102.321 75.1443V68.9939H101.88V75.1879Z" fill="#D17918"/>
<path d="M99.7421 68.9939V75.3125L100.388 75.2907V68.9939H99.7421Z" fill="#D17918"/>
<path d="M98.7359 72.8962C91.2477 72.8962 85.1783 70.5886 85.1783 67.7423C85.1783 64.896 91.2509 62.5916 98.7359 62.5916C106.221 62.5916 112.293 64.8991 112.293 67.7423C112.293 70.5855 106.227 72.8962 98.7359 72.8962Z" fill="#FF931E"/>
<path style="mix-blend-mode:multiply" opacity="0.4" d="M106.379 71.9993C105.994 71.9993 105.607 72.0211 105.212 72.0211C97.7211 72.0211 91.6548 69.7135 91.6548 66.8672C91.6548 65.0984 94.0038 63.5382 97.576 62.6133C90.6396 62.8375 85.1819 65.0485 85.1819 67.7423C85.1819 70.5886 91.2544 72.8962 98.7395 72.8962C101.314 72.9152 103.881 72.6139 106.379 71.9993V71.9993Z" fill="url(#paint7_linear_3347_11371)"/>
<path d="M112.287 67.9045C112.067 65.1329 106.086 62.9219 98.7298 62.9219C91.374 62.9219 85.4024 65.1423 85.1722 67.9045C85.3961 70.673 91.374 72.8871 98.7298 72.8871C106.086 72.8871 112.082 70.6854 112.287 67.9045ZM98.7298 72.2643C92.6415 72.2643 87.6946 70.3802 87.6946 68.0695C87.6946 65.7589 92.6447 63.8748 98.7298 63.8748C104.815 63.8748 109.765 65.7433 109.765 68.0695C109.765 70.3958 104.831 72.2581 98.7361 72.2581L98.7298 72.2643Z" fill="#D17918"/>
<path d="M97.5063 67.0291L92.2599 68.5051V69.539L97.6199 67.9041C98.2969 68.3907 99.0778 68.7177 99.9026 68.8602C99.9814 68.8788 100.063 68.8944 100.145 68.9069V69.8411H102.091V69.128C102.516 69.1467 102.914 69.1467 103.254 69.128V69.8255H105.203V67.054H103.254V68.393C102.939 68.393 102.526 68.393 102.091 68.3775V67.0726H100.145V68.0069C99.7008 67.8558 99.31 67.5811 99.0198 67.2159L97.5063 67.0291Z" fill="#D17918"/>
<path d="M109.778 67.7423C109.778 70.0561 104.824 71.9371 98.7425 71.9371C92.6605 71.9371 87.7073 70.0686 87.7073 67.7423C87.7073 65.4161 92.6574 63.5507 98.7425 63.5507C104.828 63.5507 109.778 65.4192 109.778 67.7423ZM112.3 67.7423C112.3 64.8991 106.228 62.5916 98.7425 62.5916C91.2575 62.5916 85.1849 64.8991 85.1849 67.7423C85.1849 70.5855 91.2575 72.8962 98.7425 72.8962C106.228 72.8962 112.3 70.5886 112.3 67.7423Z" fill="#FFC022"/>
<path d="M89.1573 67.7423C89.1573 65.7368 93.4548 64.105 98.7359 64.105C104.017 64.105 108.318 65.7368 108.318 67.7423C108.318 69.7478 104.02 71.3827 98.7359 71.3827C93.4516 71.3827 89.1573 69.7509 89.1573 67.7423ZM107.895 67.7423C107.895 65.824 103.796 64.2638 98.7359 64.2638C93.6755 64.2638 89.5767 65.8209 89.5767 67.7423C89.5767 69.6637 93.6755 71.2239 98.7359 71.2239C103.796 71.2239 107.895 69.6606 107.895 67.7423Z" fill="#FFC022"/>
<path d="M97.5064 66.3254L92.2599 67.8171V68.851L97.6199 67.213C98.2966 67.711 99.0813 68.0468 99.912 68.1939L100.155 68.2406V69.1749H102.1V68.4648C102.526 68.4835 102.923 68.4866 103.264 68.4648V69.1593H105.212V66.3877H103.254V67.7268C102.866 67.7412 102.478 67.736 102.091 67.7112V66.3877H100.145V67.322C99.7014 67.1698 99.3109 66.8953 99.0198 66.531L97.5064 66.3254Z" fill="#FFC022"/>
<path d="M72.9166 106.354C72.9166 109.198 78.9892 111.505 86.4742 111.505C93.9592 111.505 100.032 109.198 100.032 106.354V103.919H72.9166V106.354Z" fill="#FF931E"/>
<path d="M85.188 105.171V111.48C85.6136 111.496 86.0424 111.505 86.4776 111.505V105.171H85.188Z" fill="#D17918"/>
<path d="M82.5714 105.171V111.287C83.2745 111.368 83.9965 111.424 84.7406 111.462V105.171H82.5714Z" fill="#D17918"/>
<path d="M82.0349 111.222V103.929H72.9166V106.355C72.9166 108.606 76.7285 110.521 82.0349 111.222Z" fill="#D17918"/>
<path d="M91.3107 105.171V111.169L91.7521 111.104V105.187L91.3107 105.171Z" fill="#D17918"/>
<path d="M89.6206 111.365L90.062 111.322V105.171H89.6206V111.365Z" fill="#D17918"/>
<path d="M87.4895 105.171V111.48L88.1201 111.455V105.171H87.4895Z" fill="#D17918"/>
<path d="M86.4777 109.07C78.9895 109.07 72.9202 106.766 72.9202 103.919C72.9202 101.073 78.9927 98.7686 86.4777 98.7686C93.9628 98.7686 100.035 101.073 100.035 103.919C100.035 106.766 93.9691 109.07 86.4777 109.07Z" fill="#FF931E"/>
<path style="mix-blend-mode:multiply" opacity="0.4" d="M94.1107 108.176C93.726 108.176 93.3382 108.195 92.9441 108.195C85.4528 108.195 79.3865 105.89 79.3865 103.044C79.3865 101.275 81.7355 99.7149 85.3077 98.7869C78.3713 99.0111 72.9136 101.222 72.9136 103.919C72.9136 106.765 78.9861 109.07 86.4712 109.07C89.0455 109.09 91.6123 108.789 94.1107 108.176V108.176Z" fill="url(#paint8_linear_3347_11371)"/>
<path d="M100.029 104.078C99.808 101.306 93.8269 99.0955 86.4711 99.0955C79.1154 99.0955 73.1437 101.316 72.9136 104.078C73.1374 106.85 79.1154 109.061 86.4711 109.061C93.8269 109.061 99.808 106.85 100.029 104.078ZM86.4711 108.438C80.3829 108.438 75.4359 106.569 75.4359 104.246C75.4359 101.923 80.386 100.051 86.4711 100.051C92.5563 100.051 97.5064 101.92 97.5064 104.246C97.5064 106.572 92.5658 108.432 86.4775 108.432L86.4711 108.438Z" fill="#D17918"/>
<path d="M85.2483 103.203L80.0018 104.695V105.728L85.3618 104.094C86.0389 104.58 86.8197 104.907 87.6445 105.05C87.7233 105.068 87.8053 105.081 87.8873 105.096V106.031H89.8327V105.324C90.2583 105.342 90.6556 105.342 90.9961 105.324V106.018H92.9446V103.25H90.9961V104.586C90.6083 104.6 90.2199 104.595 89.8327 104.57V103.25H87.8873V104.184C87.4428 104.033 87.0519 103.758 86.7617 103.393L85.2483 103.203Z" fill="#D17918"/>
<path d="M97.5191 103.919C97.5191 106.23 92.5658 108.114 86.4838 108.114C80.4019 108.114 75.4486 106.23 75.4486 103.919C75.4486 101.609 80.3987 99.7246 86.4838 99.7246C92.569 99.7246 97.5191 101.593 97.5191 103.919ZM100.041 103.919C100.041 101.073 93.9689 98.7686 86.4838 98.7686C78.9988 98.7686 72.9263 101.073 72.9263 103.919C72.9263 106.766 78.9988 109.07 86.4838 109.07C93.9689 109.07 100.041 106.766 100.041 103.919Z" fill="#FFC022"/>
<path d="M76.8992 103.919C76.8992 101.914 81.1966 100.279 86.4778 100.279C91.7589 100.279 96.0595 101.914 96.0595 103.919C96.0595 105.925 91.7621 107.56 86.4778 107.56C81.1935 107.56 76.8992 105.925 76.8992 103.919ZM95.637 103.919C95.637 102.001 91.5382 100.441 86.4935 100.441C81.4488 100.441 77.3343 101.998 77.3343 103.919C77.3343 105.841 81.4331 107.398 86.4935 107.398C91.554 107.398 95.637 105.838 95.637 103.919V103.919Z" fill="#FFC022"/>
<path d="M85.2483 102.511L80.0018 104.006V105.04L85.3618 103.405C86.0382 103.893 86.8193 104.22 87.6445 104.361L87.8873 104.411V105.345H89.8327V104.629C90.2583 104.648 90.6556 104.651 90.9961 104.629V105.327H92.9446V102.555H90.9961V103.894C90.6808 103.894 90.2678 103.894 89.8327 103.879V102.555H87.8873V103.489C87.4422 103.339 87.0511 103.064 86.7617 102.698L85.2483 102.511Z" fill="#FFC022"/>
<path d="M72.9166 101.204C72.9166 104.05 78.9892 106.358 86.4742 106.358C93.9592 106.358 100.032 104.05 100.032 101.204V98.7715H72.9166V101.204Z" fill="#FF931E"/>
<path d="M85.188 100.017V106.33C85.6136 106.345 86.0424 106.355 86.4776 106.355V100.017H85.188Z" fill="#D17918"/>
<path d="M82.5714 100.017V106.133C83.2756 106.214 83.9986 106.274 84.7406 106.311V100.017H82.5714Z" fill="#D17918"/>
<path d="M82.0349 106.068V98.7778H72.9166V101.204C72.9166 103.455 76.7285 105.37 82.0349 106.068Z" fill="#D17918"/>
<path d="M91.3107 100.017V106.015L91.7521 105.95V100.017H91.3107Z" fill="#D17918"/>
<path d="M89.6206 106.211L90.062 106.171V100.017H89.6206V106.211Z" fill="#D17918"/>
<path d="M87.4895 100.017V106.336L88.1201 106.314V100.017H87.4895Z" fill="#D17918"/>
<path d="M86.4777 103.919C78.9895 103.919 72.9202 101.612 72.9202 98.7684C72.9202 95.9252 78.9927 93.6145 86.4777 93.6145C93.9628 93.6145 100.035 95.9221 100.035 98.7684C100.035 101.615 93.9691 103.919 86.4777 103.919Z" fill="#FF931E"/>
<path style="mix-blend-mode:multiply" opacity="0.4" d="M94.1107 103.022C93.726 103.022 93.3382 103.044 92.9441 103.044C85.4528 103.044 79.3865 100.736 79.3865 97.8932C79.3865 96.1244 81.7355 94.5642 85.3077 93.6362C78.3713 93.8604 72.9136 96.0715 72.9136 98.7683C72.9136 101.612 78.9861 103.919 86.4712 103.919C89.0458 103.94 91.6127 103.638 94.1107 103.022V103.022Z" fill="url(#paint9_linear_3347_11371)"/>
<path d="M100.029 98.9272C99.808 96.1556 93.8269 93.9446 86.4711 93.9446C79.1154 93.9446 73.1437 96.165 72.9136 98.9272C73.1374 101.699 79.1154 103.91 86.4711 103.91C93.8269 103.91 99.808 101.699 100.029 98.9272ZM86.4711 103.287C80.3829 103.287 75.4359 101.418 75.4359 99.0922C75.4359 96.766 80.386 94.9006 86.4711 94.9006C92.5563 94.9006 97.5064 96.7691 97.5064 99.0922C97.5064 101.415 92.5658 103.281 86.4775 103.281L86.4711 103.287Z" fill="#D17918"/>
<path d="M85.2483 98.0522L80.0018 99.5408V100.581L85.3618 98.946C86.0389 99.4326 86.8197 99.7596 87.6445 99.9021L87.8873 99.9488V100.883H89.8327V100.173C90.2583 100.192 90.6556 100.195 90.9961 100.189V100.883H92.9446V98.0896H90.9961V99.4287C90.6083 99.4431 90.2199 99.4379 89.8327 99.4131V98.0896H87.8873V99.0239C87.443 98.8739 87.0521 98.6003 86.7617 98.236L85.2483 98.0522Z" fill="#D17918"/>
<path d="M97.5191 98.7684C97.5191 101.079 92.5658 102.96 86.4838 102.96C80.4019 102.96 75.4486 101.092 75.4486 98.7684C75.4486 96.4452 80.3987 94.5737 86.4838 94.5737C92.569 94.5737 97.5191 96.4421 97.5191 98.7684ZM100.041 98.7684C100.041 95.9221 93.9689 93.6145 86.4838 93.6145C78.9988 93.6145 72.9263 95.9221 72.9263 98.7684C72.9263 101.615 78.9988 103.919 86.4838 103.919C93.9689 103.919 100.041 101.612 100.041 98.7684Z" fill="#FFC022"/>
<path d="M76.8992 98.7686C76.8992 96.76 81.1966 95.1282 86.4778 95.1282C91.7589 95.1282 96.0595 96.76 96.0595 98.7686C96.0595 100.777 91.7621 102.406 86.4778 102.406C81.1935 102.406 76.8992 100.774 76.8992 98.7686ZM95.637 98.7686C95.637 96.8503 91.5382 95.287 86.4935 95.287C81.4488 95.287 77.3343 96.8441 77.3343 98.7686C77.3343 100.693 81.4331 102.247 86.4935 102.247C91.554 102.247 95.637 100.687 95.637 98.7686V98.7686Z" fill="#FFC022"/>
<path d="M85.2483 97.3608L80.0018 98.8494V99.8833L85.3618 98.2484C86.0389 98.7349 86.8197 99.0619 87.6445 99.2044C87.7233 99.2231 87.8053 99.2355 87.8873 99.2511V100.185H89.8327V99.4753C90.2583 99.494 90.6556 99.494 90.9961 99.4753V100.173H92.9446V97.4013H90.9961V98.7373C90.6085 98.7569 90.2202 98.7569 89.8327 98.7373V97.4044H87.8873V98.3387C87.4434 98.1865 87.0528 97.912 86.7617 97.5477L85.2483 97.3608Z" fill="#FFC022"/>
<path d="M72.9166 96.0498C72.9166 98.893 78.9892 101.201 86.4742 101.201C93.9592 101.201 100.032 98.893 100.032 96.0498V93.6145H72.9166V96.0498Z" fill="#FF931E"/>
<path d="M85.188 94.8667V101.179C85.6136 101.179 86.0424 101.201 86.4776 101.201V94.8667H85.188Z" fill="#D17918"/>
<path d="M82.5714 94.8667V100.983C83.2756 101.064 83.9986 101.122 84.7406 101.157V94.8667H82.5714Z" fill="#D17918"/>
<path d="M82.0349 100.917V93.627H72.9166V96.0498C72.9166 98.3044 76.7285 100.216 82.0349 100.917Z" fill="#D17918"/>
<path d="M91.3107 94.8667V100.865L91.7521 100.799V94.8667H91.3107Z" fill="#D17918"/>
<path d="M89.6206 101.061L90.062 101.017V94.8667H89.6206V101.061Z" fill="#D17918"/>
<path d="M87.4895 94.8667V101.185L88.1201 101.163V94.8667H87.4895Z" fill="#D17918"/>
<path d="M86.4777 98.7683C78.9895 98.7683 72.9202 96.4607 72.9202 93.6144C72.9202 90.7681 78.9927 88.4636 86.4777 88.4636C93.9628 88.4636 100.035 90.7712 100.035 93.6144C100.035 96.4576 93.9691 98.7683 86.4777 98.7683Z" fill="#FF931E"/>
<path style="mix-blend-mode:multiply" opacity="0.4" d="M94.1107 97.8716C93.726 97.8716 93.3382 97.8934 92.9441 97.8934C85.4528 97.8934 79.3865 95.5858 79.3865 92.7395C79.3865 90.9707 81.7355 89.4105 85.3077 88.4856C78.3713 88.7098 72.9136 90.9208 72.9136 93.6146C72.9136 96.4609 78.9861 98.7685 86.4712 98.7685C89.0457 98.7875 91.6124 98.4862 94.1107 97.8716Z" fill="url(#paint10_linear_3347_11371)"/>
<path d="M100.029 93.7763C99.808 91.0047 93.8269 88.7937 86.4711 88.7937C79.1154 88.7937 73.1437 91.0141 72.9136 93.7763C73.1374 96.5448 79.1154 98.7589 86.4711 98.7589C93.8269 98.7589 99.808 96.5323 100.029 93.7763ZM86.4711 98.1361C80.3829 98.1361 75.4359 96.252 75.4359 93.9414C75.4359 91.6307 80.386 89.7466 86.4711 89.7466C92.5563 89.7466 97.5064 91.6307 97.5064 93.9414C97.5064 96.252 92.5658 98.1299 86.4775 98.1299L86.4711 98.1361Z" fill="#D17918"/>
<path d="M85.2483 92.9014L80.0018 94.3899V95.4238L85.3618 93.7889C86.0389 94.2755 86.8197 94.6025 87.6445 94.7449C87.7233 94.7636 87.8053 94.7792 87.8873 94.7916V95.7259H89.8327V95.0065C90.2583 95.0252 90.6556 95.0283 90.9961 95.0065V95.7041H92.9446V92.9325H90.9961V94.2716C90.6808 94.2716 90.2678 94.2716 89.8327 94.2716V92.9481H87.8873V93.8823C87.4428 93.7312 87.0519 93.4566 86.7617 93.0913L85.2483 92.9014Z" fill="#D17918"/>
<path d="M97.5191 93.6144C97.5191 95.9282 92.5658 97.8091 86.4838 97.8091C80.4019 97.8091 75.4486 95.9407 75.4486 93.6144C75.4486 91.2881 80.3987 89.4228 86.4838 89.4228C92.569 89.4228 97.5191 91.2913 97.5191 93.6144ZM100.041 93.6144C100.041 90.7712 93.9689 88.4636 86.4838 88.4636C78.9988 88.4636 72.9263 90.7712 72.9263 93.6144C72.9263 96.4576 78.9988 98.7683 86.4838 98.7683C93.9689 98.7683 100.041 96.4607 100.041 93.6144Z" fill="#FFC022"/>
<path d="M76.8992 93.6144C76.8992 91.6089 81.1966 89.9771 86.4778 89.9771C91.7589 89.9771 96.0595 91.6089 96.0595 93.6144C96.0595 95.6199 91.7621 97.2548 86.4778 97.2548C81.1935 97.2548 76.8992 95.623 76.8992 93.6144ZM95.637 93.6144C95.637 91.6961 91.5382 90.1359 86.4935 90.1359C81.4488 90.1359 77.3343 91.6929 77.3343 93.6144C77.3343 95.5358 81.4331 97.096 86.4935 97.096C91.554 97.096 95.637 95.5327 95.637 93.6144V93.6144Z" fill="#FFC022"/>
<path d="M85.2483 92.2068L80.0018 93.6985V94.7323L85.3618 93.0974C86.0389 93.584 86.8197 93.911 87.6445 94.0535L87.8873 94.1002V95.0344H89.8327V94.3275C90.2583 94.3431 90.6556 94.3462 90.9961 94.3275V95.022H92.9446V92.2504H90.9961V93.5895C90.6083 93.6039 90.2199 93.5987 89.8327 93.5739V92.2504H87.8873V93.1846C87.4434 93.0324 87.0528 92.758 86.7617 92.3936L85.2483 92.2068Z" fill="#FFC022"/>
<path d="M72.9166 90.8989C72.9166 93.7421 78.9892 96.0497 86.4742 96.0497C93.9592 96.0497 100.032 93.7421 100.032 90.8989V88.4636H72.9166V90.8989Z" fill="#FF931E"/>
<path d="M85.188 89.7156V96.0248C85.6136 96.0404 86.0424 96.0497 86.4776 96.0497V89.7156H85.188Z" fill="#D17918"/>
<path d="M82.5714 89.7156V95.8317C83.2745 95.9127 83.9965 95.9688 84.7406 96.0061V89.7156H82.5714Z" fill="#D17918"/>
<path d="M82.0349 95.7664V88.4731H72.9166V90.8991C72.9166 93.1506 76.7285 95.0658 82.0349 95.7664Z" fill="#D17918"/>
<path d="M91.3107 89.7156V95.7103L91.7521 95.6449V89.728L91.3107 89.7156Z" fill="#D17918"/>
<path d="M89.6206 95.9096L90.062 95.866V89.7156H89.6206V95.9096Z" fill="#D17918"/>
<path d="M87.4895 89.7156V96.0342L88.1201 96.0093V89.7156H87.4895Z" fill="#D17918"/>
<path d="M86.4777 93.6145C78.9895 93.6145 72.9202 91.3101 72.9202 88.4638C72.9202 85.6174 78.9927 83.313 86.4777 83.313C93.9628 83.313 100.035 85.6174 100.035 88.4638C100.035 91.3101 93.9691 93.6145 86.4777 93.6145Z" fill="#FF931E"/>
<path style="mix-blend-mode:multiply" opacity="0.4" d="M94.1107 92.7204C93.726 92.7204 93.3382 92.7391 92.9441 92.7391C85.4528 92.7391 79.3865 90.4346 79.3865 87.5883C79.3865 85.8195 81.7355 84.2593 85.3077 83.3313C78.3713 83.5555 72.9136 85.7666 72.9136 88.4634C72.9136 91.3097 78.9861 93.6142 86.4712 93.6142C89.0455 93.6341 91.6123 93.3339 94.1107 92.7204V92.7204Z" fill="url(#paint11_linear_3347_11371)"/>
<path d="M100.029 88.6225C99.808 85.854 93.8269 83.6399 86.4711 83.6399C79.1154 83.6399 73.1437 85.8634 72.9136 88.6225C73.1374 91.3941 79.1154 93.6051 86.4711 93.6051C93.8269 93.6051 99.808 91.3941 100.029 88.6225ZM86.4711 92.9823C80.3829 92.9823 75.4359 91.1138 75.4359 88.7907C75.4359 86.4675 80.386 84.5959 86.4711 84.5959C92.5563 84.5959 97.5064 86.4644 97.5064 88.7907C97.5064 91.1169 92.5658 92.976 86.4775 92.976L86.4711 92.9823Z" fill="#D17918"/>
<path d="M85.2483 87.7476L80.0018 89.2392V90.2731L85.3618 88.6382C86.0389 89.1248 86.8197 89.4518 87.6445 89.5942C87.7233 89.6129 87.8053 89.6254 87.8873 89.6409V90.5752H89.8327V89.8683C90.2583 89.887 90.6556 89.887 90.9961 89.8683V90.5627H92.9446V87.7943H90.9961V89.1302C90.6083 89.1446 90.2199 89.1394 89.8327 89.1147V87.7943H87.8873V88.7285C87.4428 88.5774 87.0519 88.3028 86.7617 87.9375L85.2483 87.7476Z" fill="#D17918"/>
<path d="M97.5191 88.4638C97.5191 90.7776 92.5658 92.6585 86.4838 92.6585C80.4019 92.6585 75.4486 90.79 75.4486 88.4638C75.4486 86.1375 80.3987 84.269 86.4838 84.269C92.569 84.269 97.5191 86.1531 97.5191 88.4638ZM100.041 88.4638C100.041 85.6174 93.9689 83.313 86.4838 83.313C78.9988 83.313 72.9263 85.6174 72.9263 88.4638C72.9263 91.3101 78.9988 93.6145 86.4838 93.6145C93.9689 93.6145 100.041 91.3101 100.041 88.4638Z" fill="#FFC022"/>
<path d="M76.8992 88.4637C76.8992 86.4582 81.1966 84.8232 86.4778 84.8232C91.7589 84.8232 96.0595 86.4582 96.0595 88.4637C96.0595 90.4692 91.7621 92.1041 86.4778 92.1041C81.1935 92.1041 76.8992 90.4692 76.8992 88.4637ZM95.637 88.4637C95.637 86.5454 91.5382 84.9852 86.4935 84.9852C81.4488 84.9852 77.3343 86.5422 77.3343 88.4637C77.3343 90.3851 81.4331 91.9422 86.4935 91.9422C91.554 91.9422 95.637 90.382 95.637 88.4637V88.4637Z" fill="#FFC022"/>
<path d="M85.2483 87.0562L80.0018 88.5447V89.5817L85.3618 87.9437C86.0382 88.4315 86.8193 88.7587 87.6445 88.8997L87.8873 88.9495V89.8838H89.8327V89.1738C90.2583 89.1924 90.6556 89.1956 90.9961 89.1738V89.8713H92.9446V87.0997H90.9961V88.4357C90.6808 88.4357 90.2678 88.4357 89.8327 88.4201V87.0966H87.8873V88.0309C87.4422 87.8809 87.0511 87.606 86.7617 87.2399L85.2483 87.0562Z" fill="#FFC022"/>
<path d="M72.9166 85.7451C72.9166 88.5914 78.9892 90.899 86.4742 90.899C93.9592 90.899 100.032 88.5914 100.032 85.7451V83.313H72.9166V85.7451Z" fill="#FF931E"/>
<path d="M85.188 84.5618V90.8741C85.6136 90.8897 86.0424 90.899 86.4776 90.899V84.5618H85.188Z" fill="#D17918"/>
<path d="M82.5714 84.5618V90.681C83.2756 90.7599 83.9986 90.8181 84.7406 90.8554V84.5618H82.5714Z" fill="#D17918"/>
<path d="M82.0349 90.6156V83.3223H72.9166V85.7451C72.9166 87.9997 76.7285 89.9149 82.0349 90.6156Z" fill="#D17918"/>
<path d="M91.3107 84.5618V90.5596L91.7521 90.4942V84.5618H91.3107Z" fill="#D17918"/>
<path d="M89.6206 90.7558L90.062 90.7153V84.5618H89.6206V90.7558Z" fill="#D17918"/>
<path d="M87.4895 84.5618V90.8803L88.1201 90.8585V84.5618H87.4895Z" fill="#D17918"/>
<path d="M86.4777 88.4636C78.9895 88.4636 72.9202 86.156 72.9202 83.3128C72.9202 80.4696 78.9769 78.1589 86.4777 78.1589C93.9786 78.1589 100.035 80.4665 100.035 83.3128C100.035 86.1591 93.9691 88.4636 86.4777 88.4636Z" fill="#FF931E"/>
<path style="mix-blend-mode:multiply" opacity="0.4" d="M94.1107 87.5669C93.726 87.5669 93.3382 87.5887 92.9441 87.5887C85.4528 87.5887 79.3865 85.2811 79.3865 82.4379C79.3865 80.6691 81.7355 79.1089 85.3077 78.1809C78.3713 78.4051 72.9136 80.6162 72.9136 83.313C72.9136 86.1562 78.9861 88.4638 86.4712 88.4638C89.0458 88.4844 91.6127 88.183 94.1107 87.5669V87.5669Z" fill="url(#paint12_linear_3347_11371)"/>
<path d="M100.029 83.4716C99.808 80.7 93.8269 78.489 86.4711 78.489C79.1154 78.489 73.1437 80.7094 72.9136 83.4716C73.1374 86.2432 79.1154 88.4542 86.4711 88.4542C93.8269 88.4542 99.808 86.2557 100.029 83.4716ZM86.4711 87.8314C80.3829 87.8314 75.4359 85.9629 75.4359 83.6367C75.4359 81.3104 80.386 79.4451 86.4711 79.4451C92.5563 79.4451 97.5064 81.3135 97.5064 83.6367C97.5064 85.9598 92.5658 87.8127 86.4775 87.8127L86.4711 87.8314Z" fill="#D17918"/>
<path d="M85.2483 82.5969L80.0018 84.0761V85.1131L85.3618 83.4782C86.0389 83.9648 86.8197 84.2918 87.6445 84.4343L87.8873 84.481V85.4152H89.8327V84.699C90.2583 84.7176 90.6556 84.7208 90.9961 84.7145V85.409H92.9446V82.6374H90.9961V83.9765C90.6083 83.9909 90.2199 83.9857 89.8327 83.9609V82.6374H87.8873V83.5716C87.443 83.4217 87.0521 83.1481 86.7617 82.7838L85.2483 82.5969Z" fill="#D17918"/>
<path d="M97.5191 83.3128C97.5191 85.6235 92.5658 87.5045 86.4838 87.5045C80.4019 87.5045 75.4486 85.636 75.4486 83.3128C75.4486 80.9897 80.3987 79.1181 86.4838 79.1181C92.569 79.1181 97.5191 80.9866 97.5191 83.3128ZM100.041 83.3128C100.041 80.4665 93.9689 78.1589 86.4838 78.1589C78.9988 78.1589 72.9263 80.4665 72.9263 83.3128C72.9263 86.1591 78.9988 88.4636 86.4838 88.4636C93.9689 88.4636 100.041 86.156 100.041 83.3128Z" fill="#FFC022"/>
<path d="M76.8992 83.313C76.8992 81.3044 81.1966 79.6726 86.4778 79.6726C91.7589 79.6726 96.0595 81.3044 96.0595 83.313C96.0595 85.3216 91.7621 86.9503 86.4778 86.9503C81.1935 86.9503 76.8992 85.3216 76.8992 83.313ZM95.637 83.313C95.637 81.3947 91.5382 79.8314 86.4935 79.8314C81.4488 79.8314 77.3343 81.3885 77.3343 83.313C77.3343 85.2376 81.4331 86.7915 86.4935 86.7915C91.554 86.7915 95.637 85.2313 95.637 83.313V83.313Z" fill="#FFC022"/>
<path d="M85.2483 81.8962L80.0018 83.3848V84.4187L85.3618 82.7838C86.0389 83.2703 86.8197 83.5974 87.6445 83.7398C87.7233 83.7585 87.8053 83.771 87.8873 83.7865V84.7208H89.8327V84.0107C90.2583 84.0294 90.6556 84.0294 90.9961 84.0107V84.7083H92.9446V81.9367H90.9961V83.2727C90.6808 83.2727 90.2678 83.2727 89.8327 83.2727V81.9492H87.8873V82.8834C87.4434 82.7312 87.0528 82.4568 86.7617 82.0924L85.2483 81.8962Z" fill="#FFC022"/>
<g style="mix-blend-mode:multiply" opacity="0.6">
<path d="M58.3219 84.5182C56.2756 84.0262 53.7691 86.6794 51.8615 90.9271V90.9458C51.8773 91.0018 51.8962 91.0579 51.9151 91.1139C51.9232 91.1373 51.9327 91.1602 51.9435 91.1825C51.9747 91.2613 52.0105 91.3382 52.0507 91.4129L52.0728 91.4503C52.1075 91.5157 52.1453 91.5779 52.1863 91.6402L52.243 91.7181C52.2424 91.7253 52.2424 91.7326 52.243 91.7399L52.1705 91.8426C52.1421 91.8862 52.1169 91.9298 52.0917 91.9734C52.0665 92.017 52.0476 92.0482 52.0286 92.0855C52.004 92.131 51.9819 92.1778 51.9624 92.2257C51.9467 92.2599 51.9277 92.2973 51.9151 92.3316C51.8955 92.3815 51.8786 92.4324 51.8647 92.4842C51.8509 92.5163 51.8403 92.5496 51.8332 92.5838C51.8186 92.6392 51.807 92.6953 51.7985 92.752C51.7985 92.7831 51.7985 92.8111 51.7985 92.8392C51.7859 92.9248 51.7796 93.0111 51.7796 93.0976V95.5329C51.7749 95.6128 51.7749 95.6928 51.7796 95.7727C51.7796 95.7976 51.7796 95.8225 51.7796 95.8474C51.7881 95.904 51.7997 95.9602 51.8142 96.0156C51.8197 96.043 51.8271 96.0701 51.8363 96.0966C51.8521 96.1526 51.871 96.2087 51.8899 96.2647C51.898 96.2891 51.9075 96.313 51.9183 96.3363C51.9501 96.4138 51.9859 96.4897 52.0255 96.5637L52.0476 96.6042C52.0812 96.6664 52.119 96.7287 52.1611 96.791L52.2178 96.872V96.8907L52.1453 96.9934C52.1169 97.037 52.0917 97.0837 52.0665 97.1273C52.0412 97.1709 52.0223 97.199 52.0034 97.2363C51.9782 97.2826 51.956 97.3304 51.9372 97.3796C51.9195 97.414 51.9038 97.4494 51.8899 97.4855C51.8703 97.5343 51.8534 97.5842 51.8395 97.6349C51.8265 97.6674 51.816 97.7007 51.8079 97.7346C51.7934 97.791 51.7818 97.8482 51.7733 97.9059C51.7718 97.9339 51.7718 97.9619 51.7733 97.9899C51.7607 98.0755 51.7544 98.1619 51.7543 98.2484V100.684C51.7495 100.764 51.7495 100.844 51.7543 100.923C51.7543 100.951 51.7543 100.976 51.7543 101.001C51.7629 101.057 51.7744 101.112 51.789 101.166C51.7949 101.195 51.8023 101.223 51.8111 101.25C51.8269 101.306 51.8458 101.363 51.8647 101.415C51.8728 101.44 51.8822 101.464 51.8931 101.487C51.9243 101.565 51.9601 101.641 52.0003 101.714C52.0003 101.73 52.0003 101.742 52.0223 101.755C52.056 101.817 52.0938 101.879 52.1358 101.942L52.1926 102.023L52.2998 102.169L52.3692 102.253L52.4984 102.4L52.5678 102.471C52.634 102.54 52.7034 102.608 52.779 102.677L52.861 102.748L53.0218 102.882L53.1385 102.973L53.2867 103.082L53.4191 103.175L53.5799 103.281L53.7186 103.371L54.0055 103.542L54.1915 103.642L54.3366 103.72L54.5415 103.826L54.6834 103.891L54.9104 103.997L55.0208 104.047C55.3108 104.175 55.6135 104.296 55.932 104.411L56.0297 104.446L56.345 104.555L56.4364 104.583C56.8841 104.729 57.3602 104.863 57.8584 104.987C58.8247 102.995 59.5751 100.907 60.097 98.7591C61.9509 91.5748 61.1185 85.1971 58.3219 84.5182Z" fill="#CCCCCC"/>
</g>
<path d="M47.4472 107.924C50.1272 108.973 54.535 104.246 57.2938 97.37C60.0526 90.494 60.1314 84.0665 57.442 83.017L55.1498 82.1201L45.1582 107.033L47.4472 107.924Z" fill="#FF931E"/>
<path d="M50.8683 96.221L56.8084 98.5472C56.9787 98.1611 57.1458 97.7687 57.3066 97.3701L51.3444 95.0376L50.8683 96.221Z" fill="#D17918"/>
<path d="M49.9069 98.6221L55.6641 100.892C55.9952 100.269 56.3199 99.6466 56.6257 98.9646L50.7045 96.6477L49.9069 98.6221Z" fill="#D17918"/>
<path d="M55.4022 101.344L48.5383 98.6592L45.1804 107.033L47.46 107.924C49.5819 108.755 52.7884 105.962 55.4022 101.344Z" fill="#D17918"/>
<path d="M53.1223 90.6153L58.766 92.8233C58.8007 92.68 58.8354 92.5368 58.8669 92.3935L53.2831 90.2136L53.1223 90.6153Z" fill="#D17918"/>
<path d="M58.331 94.4304C58.3751 94.2913 58.4161 94.1512 58.4539 94.01L52.6652 91.7429L52.5012 92.1478L58.331 94.4304Z" fill="#D17918"/>
<path d="M51.7164 94.1129L57.6628 96.4423C57.7354 96.2399 57.8079 96.0406 57.8772 95.8413L51.9529 93.5212L51.7164 94.1129Z" fill="#D17918"/>
<path d="M55.0138 96.4732C52.2519 103.352 47.8441 108.077 45.1673 107.03C42.4904 105.984 42.5535 99.5562 45.3155 92.6771C48.0774 85.798 52.4821 81.0739 55.1589 82.1202C57.8357 83.1666 57.7758 89.5941 55.0138 96.4732Z" fill="#FF931E"/>
<path style="mix-blend-mode:multiply" opacity="0.4" d="M56.9883 89.1272C56.859 89.4853 56.7234 89.8434 56.5784 90.2047C53.8196 97.0838 49.4118 101.808 46.7318 100.762C45.0671 100.108 44.4649 97.3796 44.9063 93.7548C42.5605 100.213 42.633 106.037 45.1711 107.03C47.848 108.077 52.2558 103.353 55.0177 96.4734C55.9839 94.116 56.646 91.6479 56.9883 89.1272V89.1272Z" fill="url(#paint13_linear_3347_11371)"/>
<path d="M55.3103 82.189C52.6209 81.3762 48.3266 86.0474 45.6182 92.7957C42.9098 99.544 42.7995 105.853 45.325 107.077C48.0144 107.893 52.3087 103.222 55.0171 96.4735C57.7254 89.7252 57.8516 83.4159 55.3103 82.189ZM54.4149 96.2368C52.1731 101.827 48.5756 105.682 46.4001 104.832C44.2246 103.982 44.2782 98.7375 46.5199 93.1476C48.7617 87.5577 52.3592 83.7055 54.5347 84.5557C56.7102 85.4059 56.6566 90.6469 54.4149 96.2368Z" fill="#D17918"/>
<path d="M49.0398 95.4394L48.5101 100.805L49.4844 101.188L49.9226 95.6543C50.6313 95.2148 51.227 94.6189 51.6631 93.9135C51.7103 93.845 51.7545 93.7765 51.7986 93.708L52.6657 94.0474L53.3846 92.2599L52.7161 91.9983C52.8895 91.6153 53.0314 91.2509 53.1575 90.9333L53.8134 91.1918L54.5291 89.4042L51.9216 88.3828L51.2059 90.1703L52.4671 90.6624C52.3567 90.9738 52.2085 91.3381 52.0225 91.7274L50.7771 91.2385L50.0582 93.026L50.9473 93.3748C50.641 93.7271 50.238 93.9845 49.7871 94.1159L49.0398 95.4394Z" fill="#D17918"/>
<path d="M54.2351 84.4371C56.4106 85.2904 56.357 90.5315 54.1121 96.1213C51.8673 101.711 48.2761 105.563 46.1006 104.713C43.925 103.863 43.9755 98.6189 46.2204 93.029C48.4653 87.4391 52.0564 83.587 54.2351 84.4371V84.4371ZM55.1621 82.1202C52.4852 81.0739 48.0774 85.798 45.3186 92.6771C42.5598 99.5562 42.481 105.981 45.1704 107.03C47.8599 108.08 52.2551 103.352 55.017 96.4732C57.779 89.5941 57.8547 83.1697 55.1621 82.1202Z" fill="#FFC022"/>
<path d="M46.6372 103.383C44.7455 102.645 44.7959 98.0893 46.7413 93.2468C48.6866 88.4044 51.808 85.0504 53.6966 85.7916C55.5852 86.5328 55.5379 91.0856 53.5926 95.9281C51.6472 100.771 48.5258 104.112 46.6372 103.383ZM53.5421 86.1777C51.7355 85.4708 48.7528 88.6691 46.8926 93.306C45.0324 97.943 45.0009 102.29 46.7917 102.997C48.5826 103.704 51.581 100.506 53.4412 95.8689C55.3015 91.232 55.3488 86.8784 53.5421 86.1653V86.1777Z" fill="#FFC022"/>
<path d="M48.3931 95.1871L47.8602 100.553L48.8345 100.933L49.2727 95.3989C49.9814 94.9593 50.5771 94.3635 51.0132 93.6581C51.0604 93.5896 51.1046 93.521 51.1487 93.4525L52.0158 93.792L52.7347 92.0045L52.0662 91.7429C52.2396 91.3598 52.3815 90.9955 52.5076 90.681L53.1635 90.9363L53.8823 89.1488L51.2685 88.1243L50.5528 89.9118L51.814 90.4038C51.7036 90.7152 51.5555 91.0796 51.3694 91.4688L50.1272 90.9799L49.4083 92.7674L50.2848 93.1069C49.9784 93.4592 49.5755 93.7165 49.1246 93.848L48.3931 95.1871Z" fill="#FFC022"/>
<g style="mix-blend-mode:multiply" opacity="0.6">
<path d="M91.7521 111.1C96.6233 110.318 100.041 108.487 100.041 106.354V103.919C100.029 103.427 99.8606 102.952 99.5587 102.561C99.8602 102.169 100.029 101.693 100.041 101.2V98.7682C100.029 98.2757 99.8606 97.7994 99.5587 97.4073C99.8606 97.0163 100.029 96.5411 100.041 96.0495V93.6143C100.029 93.1227 99.8606 92.6475 99.5587 92.2565C99.8606 91.8655 100.029 91.3903 100.041 90.8987V90.8614C97.2571 89.8991 92.0674 94.0409 88.0978 100.515C85.6575 104.498 84.2229 108.481 83.9833 111.415C84.2334 111.433 84.4856 111.449 84.74 111.461C85.3107 111.489 85.8876 111.505 86.4772 111.505C87.0668 111.505 87.5808 111.489 88.1199 111.464C89.2464 111.415 90.3694 111.306 91.4841 111.137L91.7521 111.1Z" fill="#CCCCCC"/>
</g>
<path d="M107.419 115.924C104.742 116.97 100.331 112.246 97.5727 105.367C94.8139 98.488 94.735 92.0636 97.4245 91.0172L99.7166 90.1204L109.708 115.033L107.419 115.924Z" fill="#FF931E"/>
<path d="M104.011 104.218L98.0707 106.544C97.9004 106.161 97.7333 105.769 97.5725 105.367L103.535 103.035L104.011 104.218Z" fill="#D17918"/>
<path d="M104.976 106.619L99.2186 108.874C98.8844 108.251 98.5628 107.628 98.2538 106.946L104.175 104.629L104.976 106.619Z" fill="#D17918"/>
<path d="M99.4705 109.344L106.334 106.657L109.695 115.031L107.413 115.924C105.297 116.753 102.091 113.972 99.4705 109.344Z" fill="#D17918"/>
<path d="M101.756 98.5971L96.1127 100.808C96.0781 100.665 96.0434 100.519 96.0118 100.378L101.593 98.1985L101.756 98.5971Z" fill="#D17918"/>
<path d="M96.5475 102.43L96.4246 102.007L102.213 99.7429L102.377 100.148L96.5475 102.43Z" fill="#D17918"/>
<path d="M103.166 102.113L97.2196 104.44C97.1439 104.237 97.0714 104.038 97.0021 103.839L102.939 101.515L103.166 102.113Z" fill="#D17918"/>
<path d="M99.8653 104.47C102.624 111.35 107.032 116.074 109.709 115.027C112.386 113.981 112.323 107.553 109.564 100.674C106.805 93.7951 102.394 89.0586 99.7171 90.1205C97.0403 91.1824 97.1065 97.5944 99.8653 104.47Z" fill="#FF931E"/>
<path style="mix-blend-mode:multiply" opacity="0.4" d="M97.8942 97.124C98.0234 97.4821 98.159 97.8403 98.304 98.2046C101.066 105.081 105.474 109.808 108.151 108.758C109.815 108.108 110.421 105.376 109.976 101.755C112.322 108.213 112.249 114.034 109.711 115.027C107.035 116.074 102.627 111.349 99.8679 104.47C98.9004 102.113 98.2373 99.6449 97.8942 97.124Z" fill="url(#paint14_linear_3347_11371)"/>
<path d="M99.865 104.471C102.573 111.219 106.864 115.893 109.554 115.077C112.076 113.85 111.969 107.541 109.261 100.793C106.552 94.0444 102.261 89.3732 99.5686 90.1891C97.0431 91.413 97.1566 97.7222 99.865 104.471ZM100.344 92.5527C102.523 91.7026 106.117 95.5579 108.359 101.148C110.601 106.738 110.657 111.976 108.479 112.829C106.3 113.682 102.709 109.827 100.464 104.237C98.2192 98.6471 98.1687 93.4185 100.344 92.5527Z" fill="#D17918"/>
<path d="M105.84 103.44L106.369 108.805L105.395 109.185L104.957 103.654C104.25 103.212 103.654 102.615 103.216 101.911C103.169 101.845 103.128 101.774 103.084 101.705L102.214 102.048L101.498 100.269L102.163 100.008C101.99 99.6248 101.848 99.2636 101.722 98.9459L101.069 99.2013L100.35 97.4138L102.958 96.3923L103.677 98.1799L102.416 98.675C102.526 98.9864 102.674 99.3477 102.86 99.7369L104.106 99.2511L104.821 101.039L103.935 101.384C104.24 101.738 104.642 101.996 105.092 102.129L105.84 103.44Z" fill="#D17918"/>
<path d="M100.647 92.4374C102.822 91.5841 106.417 95.4394 108.662 101.029C110.906 106.619 110.957 111.857 108.781 112.71C106.606 113.564 103.008 109.708 100.767 104.118C98.5249 98.5286 98.4681 93.2875 100.647 92.4374ZM99.7009 90.1205C97.0241 91.1668 97.0903 97.5944 99.8491 104.47C102.608 111.346 107.016 116.074 109.693 115.027C112.369 113.981 112.306 107.553 109.547 100.674C106.789 93.7951 102.393 89.0586 99.7167 90.1205H99.7009Z" fill="#FFC022"/>
<path d="M101.286 103.916C99.3411 99.0644 99.2938 94.5147 101.182 93.7766C103.071 93.0386 106.192 96.3832 108.138 101.232C110.083 106.081 110.13 110.63 108.242 111.371C106.353 112.113 103.235 108.765 101.286 103.916ZM101.438 103.857C103.298 108.494 106.281 111.692 108.087 110.985C109.894 110.278 109.85 105.928 107.99 101.291C106.129 96.6541 103.144 93.4559 101.337 94.1628C99.5303 94.8697 99.5776 99.217 101.438 103.857Z" fill="#FFC022"/>
<path d="M106.492 103.184L107.038 108.55L106.063 108.93L105.625 103.399C104.917 102.958 104.322 102.361 103.885 101.655C103.837 101.59 103.796 101.518 103.752 101.45L102.882 101.792L102.163 100.002L102.832 99.7402C102.658 99.3572 102.516 98.9959 102.39 98.6783L101.734 98.9336L101.003 97.1555L103.61 96.134L104.329 97.9215L103.068 98.4167C103.178 98.7281 103.327 99.0893 103.513 99.4786L104.758 98.9928L105.474 100.78L104.585 101.126C104.891 101.479 105.294 101.737 105.745 101.87L106.492 103.184Z" fill="#FFC022"/>
<path d="M57.1769 87.7567L56.6251 86.374L56.0702 87.7567L54.6703 88.3048L56.0702 88.8498L56.6251 90.2356L57.1769 88.8498L58.5799 88.3048L57.1769 87.7567Z" fill="white"/>
<path d="M96.9765 86.293L96.4248 84.9072L95.873 86.293L94.47 86.838L95.873 87.383L96.4248 88.7688L96.9765 87.383L98.3796 86.838L96.9765 86.293Z" fill="white"/>
<path d="M110.024 70.8533L109.472 69.4675L108.917 70.8533L107.517 71.3983L108.917 71.9464L109.472 73.3291L110.024 71.9464L111.427 71.3983L110.024 70.8533Z" fill="white"/>
<path d="M76.6025 96.3394L76.0508 94.9536L75.499 96.3394L74.0959 96.8844L75.499 97.4293L76.0508 98.8151L76.6025 97.4293L78.0056 96.8844L76.6025 96.3394Z" fill="white"/>
<path d="M56.4364 29.6348C56.4364 29.6348 48.9324 35.0471 46.5803 39.1765C46.5803 39.1765 56.6098 31.8365 61.9666 29.6348H56.4364Z" fill="#DAB873"/>
<path d="M58.6908 29.6348C58.6908 29.6348 64.4733 32.6586 67.3109 39.1765C67.3109 39.1765 66.9451 33.6769 63.931 29.6348H58.6908Z" fill="#DAB873"/>
<path d="M70.1736 43.2405C70.1736 43.2405 75.2498 52.6483 78.0055 62.9125C78.0055 62.9 78.6045 51.2625 70.1736 43.2405Z" fill="#DAB873"/>
<path d="M76.8992 44.4329C76.8992 44.4329 81.9754 53.8407 84.731 64.1048C84.731 64.1048 85.3269 52.4549 76.8992 44.4329Z" fill="#E8C47B"/>
<path d="M68.931 47.952C68.931 47.952 77.4439 46.5787 85.1938 48.5531C85.1938 48.5437 77.4376 44.5701 68.931 47.952Z" fill="#E8C47B"/>
<path d="M70.7789 52.4738C70.7789 52.4738 79.2918 51.1004 87.0417 53.0748C87.0543 53.0748 79.2918 49.1012 70.7789 52.4738Z" fill="#E8C47B"/>
<path d="M70.7789 52.4737C73.0262 52.1557 75.2938 51.9975 77.564 52.0004C77.4411 51.7139 77.3149 51.4211 77.1825 51.1284C74.9855 51.2098 72.8193 51.6649 70.7789 52.4737V52.4737Z" fill="#DAB873"/>
<path d="M75.4481 47.4818C75.3031 47.1953 75.1549 46.9088 75.0035 46.6191C72.9193 46.733 70.8679 47.1832 68.931 47.952C71.0896 47.6451 73.2673 47.488 75.4481 47.4818V47.4818Z" fill="#DAB873"/>
<path d="M47.8259 6.68344L58.6909 26.754V5.35059L58.0603 5.60594L57.95 5.64954C57.7356 5.73363 57.5243 5.81771 57.3194 5.89556H57.2942C57.0735 5.97653 56.8559 6.0575 56.6321 6.13535L56.4965 6.18206L55.9762 6.35334L55.7997 6.40939C55.601 6.47167 55.4024 6.53084 55.2006 6.5869L55.1502 6.60247C54.9358 6.66164 54.7245 6.71458 54.5196 6.7644L54.3462 6.80177L53.8669 6.8952L53.6841 6.92945C53.476 6.96371 53.2679 6.99173 53.0535 7.01353C51.3041 7.1639 49.5417 7.05261 47.8259 6.68344Z" fill="#DAB873"/>
<path d="M44.9943 5.99863C44.7673 5.93635 44.515 5.8585 44.2439 5.77441L53.2581 19.4205L46.6653 6.42838C46.0978 6.29448 45.5555 6.14811 44.9943 5.99863Z" fill="#DAB873"/>
<path d="M93.3037 5.46903C94.9842 4.20158 95.3279 2.3549 92.3326 2.04349C87.0798 1.51409 83.599 5.98598 78.3714 6.35033L66.3651 29.6347H71.0314L93.3037 5.46903Z" fill="#DAB873"/>
<path d="M67.7968 23.8922L76.6975 6.33161C74.8719 6.13542 73.677 5.31641 72.5072 4.46313L67.7968 23.8922Z" fill="#DAB873"/>
<path d="M53.6461 79.52C43.9288 79.52 36.0244 71.8935 36.0244 62.5231C36.0244 53.1527 43.9288 45.5293 53.6461 45.5293C63.3634 45.5293 71.2678 53.1527 71.2678 62.5231C71.2678 71.8935 63.3634 79.52 53.6461 79.52ZM53.6461 47.7092C45.1332 47.7092 38.2315 54.3548 38.2315 62.5231C38.2315 70.6915 45.1458 77.3402 53.6461 77.3402C62.1464 77.3402 69.0607 70.6915 69.0607 62.5231C69.0607 54.3548 62.1464 47.7092 53.6461 47.7092Z" fill="#534741"/>
<path d="M47.3875 64.5754L54.0086 73.323H58.6087L51.3381 64.3699C53.1254 63.5743 54.6136 62.2428 55.5914 60.5644C55.667 60.4305 55.7301 60.2966 55.7995 60.1596H59.8983V56.9115H56.7453C56.8191 56.2675 56.8381 55.6186 56.8021 54.9714H59.8983V51.7234H47.5861V54.9714H53.5325C53.5917 55.6184 53.5684 56.2703 53.4631 56.9115H47.5861V60.1596H51.7795C50.7903 61.0696 49.5808 61.713 48.2671 62.0281L47.3875 64.5754Z" fill="#534741"/>
<path d="M75.4481 28.797C75.342 28.7968 75.2363 28.7854 75.1328 28.7627C66.9131 26.969 51.7129 28.7627 51.5615 28.7845C50.6945 28.8873 49.9188 28.1928 49.8243 27.2274C49.7297 26.2621 50.3571 25.4026 51.221 25.2998C51.8516 25.2219 67.0487 23.4313 75.7413 25.3216C76.1739 25.4443 76.5431 25.725 76.7738 26.1067C77.0045 26.4884 77.0795 26.9426 76.9835 27.3769C76.938 27.7544 76.759 28.1038 76.4781 28.3636C76.1972 28.6234 75.8324 28.7769 75.4481 28.797V28.797Z" fill="#FF931E"/>
<path d="M61.8123 24.5212C61.5506 24.5212 61.2889 24.5399 61.0304 24.5493C60.3401 25.6526 59.8473 26.8651 59.5737 28.1336L60.2358 28.0994C60.5323 26.8205 61.0669 25.6072 61.8123 24.5212Z" fill="#BF6E17"/>
<path d="M57.3381 24.7488L56.553 24.8048C55.8966 25.9297 55.4381 27.1564 55.1973 28.4328L55.8531 28.3799C56.1211 27.0906 56.6243 25.8602 57.3381 24.7488V24.7488Z" fill="#BF6E17"/>
<path d="M59.5866 24.6147L58.8047 24.6583C58.1264 25.7711 57.6475 26.991 57.389 28.2645L58.0448 28.2209C58.3299 26.9354 58.8526 25.7129 59.5866 24.6147Z" fill="#BF6E17"/>
<path d="M55.0647 24.9231L54.289 24.9885C53.6549 26.1231 53.218 27.3547 52.9963 28.632L53.6553 28.5697C53.9009 27.2808 54.3782 26.0458 55.0647 24.9231V24.9231Z" fill="#BF6E17"/>
<path d="M52.0028 25.219C51.4296 26.3053 51.0327 27.4739 50.8268 28.6819C51.0252 28.7679 51.2408 28.8083 51.4574 28.8002C51.6777 27.5127 52.1271 26.2739 52.7848 25.1411L52.0028 25.219Z" fill="#BF6E17"/>
<path d="M74.4181 25.0693C74.1974 25.032 73.9703 24.9977 73.7433 24.9666C73.1526 26.0164 72.7324 27.1513 72.4979 28.3298L73.1285 28.4077C73.37 27.2325 73.8057 26.1047 74.4181 25.0693V25.0693Z" fill="#BF6E17"/>
<path d="M75.7511 25.3247H75.7133C75.1752 26.3699 74.7989 27.4889 74.5972 28.6444C74.7832 28.6817 74.9661 28.716 75.1426 28.7565C75.1679 28.7565 75.1931 28.7565 75.2183 28.7565C75.4112 27.6415 75.7748 26.5621 76.2966 25.5552C76.1327 25.4423 75.947 25.3638 75.7511 25.3247V25.3247Z" fill="#BF6E17"/>
<path d="M70.3883 24.6146L69.66 24.571C69.0027 25.6368 68.5286 26.8027 68.257 28.0215L68.9033 28.0464C69.1907 26.8253 69.6934 25.6637 70.3883 24.6146V24.6146Z" fill="#BF6E17"/>
<path d="M72.4278 24.7986C72.1945 24.7706 71.9612 24.7488 71.7247 24.7239C71.0934 25.7795 70.6388 26.9289 70.3784 28.1276L71.009 28.1774C71.283 26.9794 71.7629 25.8365 72.4278 24.7986V24.7986Z" fill="#BF6E17"/>
<path d="M68.301 24.5089L67.5538 24.4871C66.8706 25.5585 66.377 26.7368 66.094 27.9718H66.7466C67.0511 26.735 67.5776 25.5622 68.301 24.5089V24.5089Z" fill="#BF6E17"/>
<path d="M65.4195 24.459C64.7247 25.5404 64.2234 26.7318 63.9376 27.9811H64.5934C64.8968 26.7257 65.4311 25.536 66.1699 24.4714L65.4195 24.459Z" fill="#BF6E17"/>
<path d="M64.0091 24.4683H63.2367C62.5401 25.5608 62.0398 26.7639 61.7579 28.0246L62.4169 28.0028C62.7227 26.7378 63.2625 25.5395 64.0091 24.4683V24.4683Z" fill="#BF6E17"/>
<g style="mix-blend-mode:multiply" opacity="0.8">
<path d="M75.4483 27.3022C75.3422 27.3038 75.2363 27.2922 75.133 27.268C66.9133 25.4774 51.7131 27.268 51.5618 27.2929C51.2221 27.3222 50.882 27.2406 50.5938 27.0605C50.3056 26.8805 50.0852 26.6121 49.9664 26.2964C49.8422 26.5916 49.7935 26.9124 49.8245 27.2306C49.9191 28.1929 50.6947 28.8873 51.5618 28.7877C51.7131 28.769 66.9133 26.9722 75.133 28.7659C75.2365 28.7885 75.3423 28.8 75.4483 28.8001C75.8338 28.7823 76.2004 28.6302 76.4832 28.3709C76.766 28.1115 76.9467 27.7616 76.9932 27.3832C77.0596 27.0176 77.0157 26.6407 76.8671 26.2995C76.7568 26.586 76.5633 26.834 76.3109 27.0124C76.0586 27.1908 75.7585 27.2916 75.4483 27.3022V27.3022Z" fill="#B3B3B3"/>
</g>
<path d="M75.4481 32.316C75.3419 32.3175 75.236 32.306 75.1328 32.2817C66.9131 30.4911 51.7129 32.2817 51.5615 32.3067C50.6945 32.4094 49.9188 31.715 49.8243 30.7496C49.7297 29.7842 50.3571 28.9216 51.221 28.8188C51.8516 28.741 67.0487 26.9504 75.7413 28.8406C76.5957 29.0275 77.1538 29.9493 76.9835 30.8991C76.9373 31.276 76.758 31.6247 76.4772 31.8838C76.1963 32.143 75.8319 32.296 75.4481 32.316Z" fill="#FF931E"/>
<path d="M61.8123 28.04L61.0304 28.0681C60.3401 29.1714 59.8473 30.3839 59.5737 31.6524L60.2358 31.6182C60.533 30.3395 61.0675 29.1263 61.8123 28.04V28.04Z" fill="#BF6E17"/>
<path d="M57.3381 28.2708C57.0701 28.2894 56.8084 28.305 56.553 28.3268C55.8965 29.4505 55.4381 30.6763 55.1973 31.9517L55.8531 31.8987C56.121 30.6104 56.6242 29.381 57.3381 28.2708V28.2708Z" fill="#BF6E17"/>
<path d="M59.5866 28.137L58.8047 28.1774C58.1265 29.2913 57.6476 30.5123 57.389 31.7867L58.0448 31.7431C58.3286 30.4572 58.8513 29.2345 59.5866 28.137V28.137Z" fill="#BF6E17"/>
<path d="M55.0647 28.4419L54.289 28.5104C53.6537 29.6445 53.2167 30.8763 52.9963 32.1539L53.6553 32.0885C53.9009 30.7996 54.3782 29.5646 55.0647 28.4419V28.4419Z" fill="#BF6E17"/>
<path d="M52.0028 28.7346C51.429 29.8196 51.0321 30.9872 50.8268 32.1944C51.0248 32.2819 51.2407 32.3224 51.4574 32.3127C51.6747 31.0224 52.1219 29.7803 52.7785 28.6443C52.4915 28.6817 52.2204 28.7097 52.0028 28.7346Z" fill="#BF6E17"/>
<path d="M74.4181 28.5915C74.1974 28.5541 73.9703 28.5167 73.7433 28.4856C73.1533 29.5357 72.7331 30.6705 72.4979 31.8489L73.1285 31.9298C73.3695 30.7546 73.8052 29.6266 74.4181 28.5915V28.5915Z" fill="#BF6E17"/>
<path d="M75.7511 28.8438H75.7133C75.1732 29.8936 74.7969 31.018 74.5972 32.179L75.1426 32.288H75.2183C75.4117 31.1731 75.7753 30.0938 76.2966 29.0867C76.1337 28.9694 75.948 28.8867 75.7511 28.8438V28.8438Z" fill="#BF6E17"/>
<path d="M70.3883 28.1368L69.66 28.0901C69.0033 29.1539 68.5293 30.3177 68.257 31.5343L68.9033 31.5623C69.1901 30.343 69.6928 29.1833 70.3883 28.1368V28.1368Z" fill="#BF6E17"/>
<path d="M72.4278 28.3331L71.7247 28.2615C71.0923 29.3166 70.6376 30.4661 70.3784 31.6652C70.5928 31.6652 70.8041 31.6964 71.009 31.715C71.2838 30.5162 71.7636 29.3725 72.4278 28.3331Z" fill="#BF6E17"/>
<path d="M68.301 28.0216L67.5538 27.9998C66.8706 29.0712 66.377 30.2495 66.094 31.4845H66.7466C67.0518 30.2479 67.5782 29.0752 68.301 28.0216V28.0216Z" fill="#BF6E17"/>
<path d="M65.4195 27.978C64.7255 29.0598 64.2243 30.2511 63.9376 31.5001H64.5934C64.898 30.2451 65.4323 29.0557 66.1699 27.9905L65.4195 27.978Z" fill="#BF6E17"/>
<path d="M64.0091 27.9871H63.2367C62.5407 29.0799 62.0405 30.2829 61.7579 31.5434L62.4169 31.5216C62.7227 30.2566 63.2625 29.0583 64.0091 27.9871V27.9871Z" fill="#BF6E17"/>
<g style="mix-blend-mode:multiply" opacity="0.8">
<path d="M75.4485 30.8243C75.3426 30.8252 75.2368 30.8148 75.1332 30.7931C66.9135 28.9994 51.7133 30.7931 51.5619 30.8149C51.2226 30.8444 50.8829 30.7633 50.5947 30.5838C50.3066 30.4044 50.0859 30.1366 49.9666 29.8215C49.8421 30.1166 49.7933 30.4376 49.8247 30.7558C49.9193 31.718 50.6949 32.4125 51.5619 32.3128C51.7133 32.2942 66.9135 30.4973 75.1332 32.2879C75.2365 32.3122 75.3424 32.3237 75.4485 32.3222C75.8335 32.3045 76.1998 32.1528 76.4825 31.8941C76.7652 31.6354 76.9462 31.2862 76.9934 30.9084C77.0598 30.5417 77.016 30.1639 76.8673 29.8215C76.757 30.1081 76.5635 30.3561 76.3111 30.5344C76.0587 30.7128 75.7587 30.8136 75.4485 30.8243V30.8243Z" fill="#B3B3B3"/>
</g>
<defs>
<linearGradient id="paint0_linear_3347_11371" x1="62.3831" y1="93.1133" x2="62.3831" y2="103.396" gradientUnits="userSpaceOnUse">
<stop stop-color="white"/>
<stop offset="1" stop-color="#D17918"/>
</linearGradient>
<linearGradient id="paint1_linear_3347_11371" x1="4401.66" y1="3995" x2="5101.9" y2="3995" gradientUnits="userSpaceOnUse">
<stop stop-color="white"/>
<stop offset="1" stop-color="#D17918"/>
</linearGradient>
<linearGradient id="paint2_linear_3347_11371" x1="4051.01" y1="3989.88" x2="4751.04" y2="3989.88" gradientUnits="userSpaceOnUse">
<stop stop-color="white"/>
<stop offset="1" stop-color="#D17918"/>
</linearGradient>
<linearGradient id="paint3_linear_3347_11371" x1="4111.78" y1="2901.1" x2="4811.71" y2="2901.1" gradientUnits="userSpaceOnUse">
<stop stop-color="white"/>
<stop offset="1" stop-color="#D17918"/>
</linearGradient>
<linearGradient id="paint4_linear_3347_11371" x1="3761.18" y1="2895.91" x2="4461.11" y2="2895.91" gradientUnits="userSpaceOnUse">
<stop stop-color="white"/>
<stop offset="1" stop-color="#D17918"/>
</linearGradient>
<linearGradient id="paint5_linear_3347_11371" x1="3410.37" y1="2890.77" x2="4110.3" y2="2890.77" gradientUnits="userSpaceOnUse">
<stop stop-color="white"/>
<stop offset="1" stop-color="#D17918"/>
</linearGradient>
<linearGradient id="paint6_linear_3347_11371" x1="3059.77" y1="2885.65" x2="3759.7" y2="2885.65" gradientUnits="userSpaceOnUse">
<stop stop-color="white"/>
<stop offset="1" stop-color="#D17918"/>
</linearGradient>
<linearGradient id="paint7_linear_3347_11371" x1="2709.17" y1="2880.46" x2="3409.1" y2="2880.46" gradientUnits="userSpaceOnUse">
<stop stop-color="white"/>
<stop offset="1" stop-color="#D17918"/>
</linearGradient>
<linearGradient id="paint8_linear_3347_11371" x1="5159.16" y1="3316.48" x2="5859.3" y2="3316.48" gradientUnits="userSpaceOnUse">
<stop stop-color="white"/>
<stop offset="1" stop-color="#D17918"/>
</linearGradient>
<linearGradient id="paint9_linear_3347_11371" x1="4808.56" y1="3311.34" x2="5508.49" y2="3311.34" gradientUnits="userSpaceOnUse">
<stop stop-color="white"/>
<stop offset="1" stop-color="#D17918"/>
</linearGradient>
<linearGradient id="paint10_linear_3347_11371" x1="4457.96" y1="3306.16" x2="5157.89" y2="3306.16" gradientUnits="userSpaceOnUse">
<stop stop-color="white"/>
<stop offset="1" stop-color="#D17918"/>
</linearGradient>
<linearGradient id="paint11_linear_3347_11371" x1="4107.15" y1="3301.03" x2="4807.29" y2="3301.03" gradientUnits="userSpaceOnUse">
<stop stop-color="white"/>
<stop offset="1" stop-color="#D17918"/>
</linearGradient>
<linearGradient id="paint12_linear_3347_11371" x1="3756.55" y1="3295.89" x2="4456.48" y2="3295.89" gradientUnits="userSpaceOnUse">
<stop stop-color="white"/>
<stop offset="1" stop-color="#D17918"/>
</linearGradient>
<linearGradient id="paint13_linear_3347_11371" x1="638.487" y1="10554.3" x2="1060.16" y2="10723.5" gradientUnits="userSpaceOnUse">
<stop stop-color="white"/>
<stop offset="1" stop-color="#D17918"/>
</linearGradient>
<linearGradient id="paint14_linear_3347_11371" x1="-3067.7" y1="10764.8" x2="-3489.52" y2="10934.7" gradientUnits="userSpaceOnUse">
<stop stop-color="white"/>
<stop offset="1" stop-color="#D17918"/>
</linearGradient>
</defs>
</svg>
